<mxfile host="app.diagrams.net" agent="Mozilla/5.0 (Windows NT 10.0; Win64; x64; rv:139.0) Gecko/20100101 Firefox/139.0" version="27.1.4">
  <diagram name="Page-1" id="Sg3gAZ4M7-Q5nKlFs2wz">
    <mxGraphModel dx="10357" dy="6107" grid="1" gridSize="10" guides="1" tooltips="1" connect="1" arrows="1" fold="1" page="1" pageScale="1" pageWidth="850" pageHeight="1100" math="0" shadow="0">
      <root>
        <mxCell id="0" />
        <mxCell id="1" parent="0" />
        <mxCell id="Gq04PCi7IPzmHZxt_STZ-1" value="&lt;p style=&quot;margin:0px;margin-top:4px;text-align:center;&quot;&gt;&lt;i&gt;&amp;lt;&amp;lt;enumeration&amp;gt;&amp;gt;&lt;/i&gt;&lt;br/&gt;&lt;b&gt;ActivePanel&lt;/b&gt;&lt;/p&gt;&lt;hr size=&quot;1&quot;/&gt;&lt;p style=&quot;margin:0 0 0 4px;line-height:1.6;&quot;&gt;+ ActivePanel(): &lt;/p&gt;&lt;hr size=&quot;1&quot;/&gt;&lt;p style=&quot;margin:0 0 0 4px;line-height:1.6;&quot;&gt;+ valueOf(String): ActivePanel&lt;br/&gt;+ values(): ActivePanel[]&lt;/p&gt;" style="verticalAlign=top;align=left;overflow=fill;fontSize=14;fontFamily=Helvetica;html=1;rounded=0;shadow=0;comic=0;labelBackgroundColor=none;strokeWidth=1;" vertex="1" parent="1">
          <mxGeometry x="1133" y="2007" width="220" height="136" as="geometry" />
        </mxCell>
        <mxCell id="Gq04PCi7IPzmHZxt_STZ-2" value="&lt;p style=&quot;margin:0px;margin-top:4px;text-align:center;&quot;&gt;&lt;b&gt;CountDown&lt;/b&gt;&lt;/p&gt;&lt;hr size=&quot;1&quot;/&gt;&lt;p style=&quot;margin:0 0 0 4px;line-height:1.6;&quot;&gt;+ CountDown(): &lt;/p&gt;&lt;hr size=&quot;1&quot;/&gt;&lt;p style=&quot;margin:0 0 0 4px;line-height:1.6;&quot;&gt;+ run(): void&lt;/p&gt;" style="verticalAlign=top;align=left;overflow=fill;fontSize=14;fontFamily=Helvetica;html=1;rounded=0;shadow=0;comic=0;labelBackgroundColor=none;strokeWidth=1;" vertex="1" parent="1">
          <mxGeometry x="391" y="518" width="144" height="93" as="geometry" />
        </mxCell>
        <mxCell id="Gq04PCi7IPzmHZxt_STZ-3" value="&lt;p style=&quot;margin:0px;margin-top:4px;text-align:center;&quot;&gt;&lt;b&gt;T7ByteConverter&lt;/b&gt;&lt;/p&gt;&lt;hr size=&quot;1&quot;/&gt;&lt;p style=&quot;margin:0 0 0 4px;line-height:1.6;&quot;&gt;- T7ByteConverter(): &lt;/p&gt;&lt;hr size=&quot;1&quot;/&gt;&lt;p style=&quot;margin:0 0 0 4px;line-height:1.6;&quot;&gt;+ fromBytes(byte[], Class&amp;lt;T&amp;gt;): T&lt;br/&gt;+ toBytes(Object): byte[]&lt;/p&gt;" style="verticalAlign=top;align=left;overflow=fill;fontSize=14;fontFamily=Helvetica;html=1;rounded=0;shadow=0;comic=0;labelBackgroundColor=none;strokeWidth=1;" vertex="1" parent="1">
          <mxGeometry x="-260" y="2780" width="239" height="118" as="geometry" />
        </mxCell>
        <mxCell id="Gq04PCi7IPzmHZxt_STZ-4" value="&lt;p style=&quot;margin:0px;margin-top:4px;text-align:center;&quot;&gt;&lt;b&gt;T7CardPanel&lt;/b&gt;&lt;/p&gt;&lt;hr size=&quot;1&quot;/&gt;&lt;p style=&quot;margin:0 0 0 4px;line-height:1.6;&quot;&gt;+ T7CardPanel(T7VotingController, double): &lt;/p&gt;" style="verticalAlign=top;align=left;overflow=fill;fontSize=14;fontFamily=Helvetica;html=1;rounded=0;shadow=0;comic=0;labelBackgroundColor=none;strokeWidth=1;" vertex="1" parent="1">
          <mxGeometry x="129" y="1370" width="309" height="67" as="geometry" />
        </mxCell>
        <mxCell id="Gq04PCi7IPzmHZxt_STZ-5" value="&lt;p style=&quot;margin:0px;margin-top:4px;text-align:center;&quot;&gt;&lt;b&gt;T7CardsPanel&lt;/b&gt;&lt;/p&gt;&lt;hr size=&quot;1&quot;/&gt;&lt;p style=&quot;margin:0 0 0 4px;line-height:1.6;&quot;&gt;+ T7CardsPanel(T7VotingController, ArrayList&amp;lt;Double&amp;gt;): &lt;/p&gt;" style="verticalAlign=top;align=left;overflow=fill;fontSize=14;fontFamily=Helvetica;html=1;rounded=0;shadow=0;comic=0;labelBackgroundColor=none;strokeWidth=1;" vertex="1" parent="1">
          <mxGeometry x="288" y="2190" width="390" height="67" as="geometry" />
        </mxCell>
        <mxCell id="Gq04PCi7IPzmHZxt_STZ-6" value="&lt;p style=&quot;margin:0px;margin-top:4px;text-align:center;&quot;&gt;&lt;b&gt;T7ChoiceController&lt;/b&gt;&lt;/p&gt;&lt;hr size=&quot;1&quot;/&gt;&lt;p style=&quot;margin:0 0 0 4px;line-height:1.6;&quot;&gt;+ T7ChoiceController(T7Main): &lt;/p&gt;&lt;hr size=&quot;1&quot;/&gt;&lt;p style=&quot;margin:0 0 0 4px;line-height:1.6;&quot;&gt;+ chooseJoinRoom(): void&lt;br/&gt;- switchGUI(): void&lt;br/&gt;+ chooseCreateRoom(): void&lt;/p&gt;" style="verticalAlign=top;align=left;overflow=fill;fontSize=14;fontFamily=Helvetica;html=1;rounded=0;shadow=0;comic=0;labelBackgroundColor=none;strokeWidth=1;" vertex="1" parent="1">
          <mxGeometry x="930" y="3515" width="227" height="143" as="geometry" />
        </mxCell>
        <mxCell id="Gq04PCi7IPzmHZxt_STZ-7" value="&lt;p style=&quot;margin:0px;margin-top:4px;text-align:center;&quot;&gt;&lt;b&gt;T7ChoicePanel&lt;/b&gt;&lt;/p&gt;&lt;hr size=&quot;1&quot;/&gt;&lt;p style=&quot;margin:0 0 0 4px;line-height:1.6;&quot;&gt;+ T7ChoicePanel(T7ChoiceController, T7Main): &lt;/p&gt;" style="verticalAlign=top;align=left;overflow=fill;fontSize=14;fontFamily=Helvetica;html=1;rounded=0;shadow=0;comic=0;labelBackgroundColor=none;strokeWidth=1;" vertex="1" parent="1">
          <mxGeometry x="1440" y="3550" width="327" height="67" as="geometry" />
        </mxCell>
        <mxCell id="Gq04PCi7IPzmHZxt_STZ-8" value="&lt;p style=&quot;margin:0px;margin-top:4px;text-align:center;&quot;&gt;&lt;b&gt;T7ConnectedUsersPanel&lt;/b&gt;&lt;/p&gt;&lt;hr size=&quot;1&quot;/&gt;&lt;p style=&quot;margin:0 0 0 4px;line-height:1.6;&quot;&gt;+ T7ConnectedUsersPanel(): &lt;/p&gt;&lt;hr size=&quot;1&quot;/&gt;&lt;p style=&quot;margin:0 0 0 4px;line-height:1.6;&quot;&gt;- updateUserList(List&amp;lt;T7User&amp;gt;): void&lt;br/&gt;+ propertyChange(PropertyChangeEvent): void&lt;/p&gt;" style="verticalAlign=top;align=left;overflow=fill;fontSize=14;fontFamily=Helvetica;html=1;rounded=0;shadow=0;comic=0;labelBackgroundColor=none;strokeWidth=1;" vertex="1" parent="1">
          <mxGeometry x="1039" y="1347" width="328" height="118" as="geometry" />
        </mxCell>
        <mxCell id="Gq04PCi7IPzmHZxt_STZ-9" value="&lt;p style=&quot;margin:0px;margin-top:4px;text-align:center;&quot;&gt;&lt;b&gt;T7CreateRoomController&lt;/b&gt;&lt;/p&gt;&lt;hr size=&quot;1&quot;/&gt;&lt;p style=&quot;margin:0 0 0 4px;line-height:1.6;&quot;&gt;+ T7CreateRoomController(T7Main): &lt;/p&gt;&lt;hr size=&quot;1&quot;/&gt;&lt;p style=&quot;margin:0 0 0 4px;line-height:1.6;&quot;&gt;- switchGUI(): void&lt;br/&gt;+ createRoom(String, int): void&lt;br/&gt;- initMqtt(String): void&lt;/p&gt;" style="verticalAlign=top;align=left;overflow=fill;fontSize=14;fontFamily=Helvetica;html=1;rounded=0;shadow=0;comic=0;labelBackgroundColor=none;strokeWidth=1;" vertex="1" parent="1">
          <mxGeometry x="993" y="4455" width="261" height="143" as="geometry" />
        </mxCell>
        <mxCell id="Gq04PCi7IPzmHZxt_STZ-10" value="&lt;p style=&quot;margin:0px;margin-top:4px;text-align:center;&quot;&gt;&lt;b&gt;T7CreateRoomPanel&lt;/b&gt;&lt;/p&gt;&lt;hr size=&quot;1&quot;/&gt;&lt;p style=&quot;margin:0 0 0 4px;line-height:1.6;&quot;&gt;+ T7CreateRoomPanel(T7CreateRoomController, T7Main): &lt;/p&gt;" style="verticalAlign=top;align=left;overflow=fill;fontSize=14;fontFamily=Helvetica;html=1;rounded=0;shadow=0;comic=0;labelBackgroundColor=none;strokeWidth=1;" vertex="1" parent="1">
          <mxGeometry x="426" y="3310" width="395" height="67" as="geometry" />
        </mxCell>
        <mxCell id="Gq04PCi7IPzmHZxt_STZ-11" value="&lt;p style=&quot;margin:0px;margin-top:4px;text-align:center;&quot;&gt;&lt;b&gt;T7InvitePlayerPanel&lt;/b&gt;&lt;/p&gt;&lt;hr size=&quot;1&quot;/&gt;&lt;p style=&quot;margin:0 0 0 4px;line-height:1.6;&quot;&gt;+ T7InvitePlayerPanel(): &lt;/p&gt;" style="verticalAlign=top;align=left;overflow=fill;fontSize=14;fontFamily=Helvetica;html=1;rounded=0;shadow=0;comic=0;labelBackgroundColor=none;strokeWidth=1;" vertex="1" parent="1">
          <mxGeometry x="922" y="770" width="202" height="67" as="geometry" />
        </mxCell>
        <mxCell id="Gq04PCi7IPzmHZxt_STZ-12" value="&lt;p style=&quot;margin:0px;margin-top:4px;text-align:center;&quot;&gt;&lt;b&gt;T7JoinRoomController&lt;/b&gt;&lt;/p&gt;&lt;hr size=&quot;1&quot;/&gt;&lt;p style=&quot;margin:0 0 0 4px;line-height:1.6;&quot;&gt;+ T7JoinRoomController(T7Main): &lt;/p&gt;&lt;hr size=&quot;1&quot;/&gt;&lt;p style=&quot;margin:0 0 0 4px;line-height:1.6;&quot;&gt;+ joinRoom(String): void&lt;br/&gt;- initMqtt(String): void&lt;br/&gt;- switchGUI(): void&lt;/p&gt;" style="verticalAlign=top;align=left;overflow=fill;fontSize=14;fontFamily=Helvetica;html=1;rounded=0;shadow=0;comic=0;labelBackgroundColor=none;strokeWidth=1;" vertex="1" parent="1">
          <mxGeometry x="1061" y="3275" width="245" height="143" as="geometry" />
        </mxCell>
        <mxCell id="Gq04PCi7IPzmHZxt_STZ-13" value="&lt;p style=&quot;margin:0px;margin-top:4px;text-align:center;&quot;&gt;&lt;b&gt;T7JoinRoomPanel&lt;/b&gt;&lt;/p&gt;&lt;hr size=&quot;1&quot;/&gt;&lt;p style=&quot;margin:0 0 0 4px;line-height:1.6;&quot;&gt;+ T7JoinRoomPanel(T7JoinRoomController, T7Main): &lt;/p&gt;" style="verticalAlign=top;align=left;overflow=fill;fontSize=14;fontFamily=Helvetica;html=1;rounded=0;shadow=0;comic=0;labelBackgroundColor=none;strokeWidth=1;" vertex="1" parent="1">
          <mxGeometry x="662" y="3190" width="363" height="67" as="geometry" />
        </mxCell>
        <mxCell id="Gq04PCi7IPzmHZxt_STZ-14" value="&lt;p style=&quot;margin:0px;margin-top:4px;text-align:center;&quot;&gt;&lt;b&gt;T7LoginController&lt;/b&gt;&lt;/p&gt;&lt;hr size=&quot;1&quot;/&gt;&lt;p style=&quot;margin:0 0 0 4px;line-height:1.6;&quot;&gt;+ T7LoginController(T7Main): &lt;/p&gt;&lt;hr size=&quot;1&quot;/&gt;&lt;p style=&quot;margin:0 0 0 4px;line-height:1.6;&quot;&gt;- switchGUI(): void&lt;br/&gt;+ login(String): void&lt;/p&gt;" style="verticalAlign=top;align=left;overflow=fill;fontSize=14;fontFamily=Helvetica;html=1;rounded=0;shadow=0;comic=0;labelBackgroundColor=none;strokeWidth=1;" vertex="1" parent="1">
          <mxGeometry x="1174" y="3747" width="218" height="118" as="geometry" />
        </mxCell>
        <mxCell id="Gq04PCi7IPzmHZxt_STZ-15" value="&lt;p style=&quot;margin:0px;margin-top:4px;text-align:center;&quot;&gt;&lt;b&gt;T7LoginPanel&lt;/b&gt;&lt;/p&gt;&lt;hr size=&quot;1&quot;/&gt;&lt;p style=&quot;margin:0 0 0 4px;line-height:1.6;&quot;&gt;+ T7LoginPanel(T7LoginController, T7Main): &lt;/p&gt;" style="verticalAlign=top;align=left;overflow=fill;fontSize=14;fontFamily=Helvetica;html=1;rounded=0;shadow=0;comic=0;labelBackgroundColor=none;strokeWidth=1;" vertex="1" parent="1">
          <mxGeometry x="1449" y="3770" width="309" height="67" as="geometry" />
        </mxCell>
        <mxCell id="Gq04PCi7IPzmHZxt_STZ-16" value="&lt;p style=&quot;margin:0px;margin-top:4px;text-align:center;&quot;&gt;&lt;b&gt;T7Main&lt;/b&gt;&lt;/p&gt;&lt;hr size=&quot;1&quot;/&gt;&lt;p style=&quot;margin:0 0 0 4px;line-height:1.6;&quot;&gt;+ T7Main(): &lt;/p&gt;&lt;hr size=&quot;1&quot;/&gt;&lt;p style=&quot;margin:0 0 0 4px;line-height:1.6;&quot;&gt;+ main(String[]): void&lt;/p&gt;" style="verticalAlign=top;align=left;overflow=fill;fontSize=14;fontFamily=Helvetica;html=1;rounded=0;shadow=0;comic=0;labelBackgroundColor=none;strokeWidth=1;" vertex="1" parent="1">
          <mxGeometry x="1101" y="3958" width="164" height="93" as="geometry" />
        </mxCell>
        <mxCell id="Gq04PCi7IPzmHZxt_STZ-17" value="&lt;p style=&quot;margin:0px;margin-top:4px;text-align:center;&quot;&gt;&lt;b&gt;T7PublishItem&lt;/b&gt;&lt;/p&gt;&lt;hr size=&quot;1&quot;/&gt;&lt;p style=&quot;margin:0 0 0 4px;line-height:1.6;&quot;&gt;+ T7PublishItem(String, byte[], int): &lt;/p&gt;&lt;hr size=&quot;1&quot;/&gt;&lt;p style=&quot;margin:0 0 0 4px;line-height:1.6;&quot;&gt;- subTopic: String&lt;br/&gt;- message: byte[]&lt;br/&gt;- qos: int&lt;/p&gt;&lt;hr size=&quot;1&quot;/&gt;&lt;p style=&quot;margin:0 0 0 4px;line-height:1.6;&quot;&gt; qos: int&lt;br/&gt; subTopic: String&lt;br/&gt; message: byte[]&lt;/p&gt;" style="verticalAlign=top;align=left;overflow=fill;fontSize=14;fontFamily=Helvetica;html=1;rounded=0;shadow=0;comic=0;labelBackgroundColor=none;strokeWidth=1;" vertex="1" parent="1">
          <mxGeometry x="515" y="220" width="256" height="202" as="geometry" />
        </mxCell>
        <mxCell id="Gq04PCi7IPzmHZxt_STZ-18" value="&lt;p style=&quot;margin:0px;margin-top:4px;text-align:center;&quot;&gt;&lt;b&gt;T7Publisher&lt;/b&gt;&lt;/p&gt;&lt;hr size=&quot;1&quot;/&gt;&lt;p style=&quot;margin:0 0 0 4px;line-height:1.6;&quot;&gt;+ T7Publisher(String, String, String): &lt;/p&gt;&lt;hr size=&quot;1&quot;/&gt;&lt;p style=&quot;margin:0 0 0 4px;line-height:1.6;&quot;&gt;+ run(): void&lt;/p&gt;" style="verticalAlign=top;align=left;overflow=fill;fontSize=14;fontFamily=Helvetica;html=1;rounded=0;shadow=0;comic=0;labelBackgroundColor=none;strokeWidth=1;" vertex="1" parent="1">
          <mxGeometry x="-108" y="2958" width="262" height="93" as="geometry" />
        </mxCell>
        <mxCell id="Gq04PCi7IPzmHZxt_STZ-19" value="&lt;p style=&quot;margin:0px;margin-top:4px;text-align:center;&quot;&gt;&lt;b&gt;T7Repository&lt;/b&gt;&lt;/p&gt;&lt;hr size=&quot;1&quot;/&gt;&lt;p style=&quot;margin:0 0 0 4px;line-height:1.6;&quot;&gt;- T7Repository(): &lt;/p&gt;&lt;hr size=&quot;1&quot;/&gt;&lt;p style=&quot;margin:0 0 0 4px;line-height:1.6;&quot;&gt;- type: Type&lt;br/&gt;- stories: ArrayList&amp;lt;T7Story&amp;gt;&lt;br/&gt;- votingMethodNames: String[]&lt;br/&gt;- currentUser: T7User&lt;br/&gt;- instance: T7Repository&lt;br/&gt;- votingStarted: boolean&lt;br/&gt;~ votes: HashMap&amp;lt;String, Double&amp;gt;&lt;br/&gt;- votingMethodIndex: int&lt;br/&gt;- timeLeft: Duration&lt;br/&gt;- currentStoryIndex: int&lt;br/&gt;- votingMethodNumbers: Double[][]&lt;br/&gt;- currentRoomName: String&lt;br/&gt;- users: ArrayList&amp;lt;T7User&amp;gt;&lt;/p&gt;&lt;hr size=&quot;1&quot;/&gt;&lt;p style=&quot;margin:0 0 0 4px;line-height:1.6;&quot;&gt;+ incrementCurrentStoryIndex(boolean): void&lt;br/&gt;+ setTimeLeft(Duration, boolean): void&lt;br/&gt;+ setStories(ArrayList&amp;lt;T7Story&amp;gt;, boolean): void&lt;br/&gt;+ popPublishQueue(): T7PublishItem&lt;br/&gt;+ setCurrentStoryIndex(int, boolean): void&lt;br/&gt;+ publishInit(): void&lt;br/&gt;+ pushPublishQueue(T7PublishItem): void&lt;br/&gt;+ setUsers(ArrayList&amp;lt;T7User&amp;gt;, boolean): void&lt;br/&gt;+ addVote(T7User, double, boolean): void&lt;br/&gt;+ setVotingStarted(boolean, boolean): void&lt;br/&gt;+ setVotes(HashMap&amp;lt;String, Double&amp;gt;, boolean): void&lt;br/&gt;+ setVotingMethodIndex(int, boolean): void&lt;br/&gt;+ addStory(T7Story, boolean): void&lt;br/&gt;+ setCurrentUser(T7User, boolean): void&lt;br/&gt;+ addUser(T7User, boolean): void&lt;/p&gt;&lt;hr size=&quot;1&quot;/&gt;&lt;p style=&quot;margin:0 0 0 4px;line-height:1.6;&quot;&gt; type: Type&lt;br/&gt; votingMethodIndex: int&lt;br/&gt; users: ArrayList&amp;lt;T7User&amp;gt;&lt;br/&gt; currentUser: T7User&lt;br/&gt; votingStarted: boolean&lt;br/&gt; votingMethodNames: String[]&lt;br/&gt; currentRoomName: String&lt;br/&gt; votingMethodNumbers: Double[][]&lt;br/&gt; instance: T7Repository&lt;br/&gt; timeLeft: Duration&lt;br/&gt; stories: ArrayList&amp;lt;T7Story&amp;gt;&lt;br/&gt; votes: HashMap&amp;lt;String, Double&amp;gt;&lt;br/&gt; currentStoryIndex: int&lt;/p&gt;" style="verticalAlign=top;align=left;overflow=fill;fontSize=14;fontFamily=Helvetica;html=1;rounded=0;shadow=0;comic=0;labelBackgroundColor=none;strokeWidth=1;" vertex="1" parent="1">
          <mxGeometry x="599" y="897" width="369" height="1008" as="geometry" />
        </mxCell>
        <mxCell id="Gq04PCi7IPzmHZxt_STZ-20" value="&lt;p style=&quot;margin:0px;margin-top:4px;text-align:center;&quot;&gt;&lt;b&gt;T7ResultsPanel&lt;/b&gt;&lt;/p&gt;&lt;hr size=&quot;1&quot;/&gt;&lt;p style=&quot;margin:0 0 0 4px;line-height:1.6;&quot;&gt;# T7ResultsPanel(JFreeChart): &lt;/p&gt;&lt;hr size=&quot;1&quot;/&gt;&lt;p style=&quot;margin:0 0 0 4px;line-height:1.6;&quot;&gt;+ createPanel(): T7ResultsPanel&lt;/p&gt;" style="verticalAlign=top;align=left;overflow=fill;fontSize=14;fontFamily=Helvetica;html=1;rounded=0;shadow=0;comic=0;labelBackgroundColor=none;strokeWidth=1;" vertex="1" parent="1">
          <mxGeometry x="640" y="2600" width="231" height="93" as="geometry" />
        </mxCell>
        <mxCell id="Gq04PCi7IPzmHZxt_STZ-21" value="&lt;p style=&quot;margin:0px;margin-top:4px;text-align:center;&quot;&gt;&lt;b&gt;T7RoomPanel&lt;/b&gt;&lt;/p&gt;&lt;hr size=&quot;1&quot;/&gt;&lt;p style=&quot;margin:0 0 0 4px;line-height:1.6;&quot;&gt;+ T7RoomPanel(T7Main): &lt;/p&gt;" style="verticalAlign=top;align=left;overflow=fill;fontSize=14;fontFamily=Helvetica;html=1;rounded=0;shadow=0;comic=0;labelBackgroundColor=none;strokeWidth=1;" vertex="1" parent="1">
          <mxGeometry x="288" y="2970" width="191" height="67" as="geometry" />
        </mxCell>
        <mxCell id="Gq04PCi7IPzmHZxt_STZ-22" value="&lt;p style=&quot;margin:0px;margin-top:4px;text-align:center;&quot;&gt;&lt;b&gt;T7StoriesPanel&lt;/b&gt;&lt;/p&gt;&lt;hr size=&quot;1&quot;/&gt;&lt;p style=&quot;margin:0 0 0 4px;line-height:1.6;&quot;&gt;+ T7StoriesPanel(): &lt;/p&gt;&lt;hr size=&quot;1&quot;/&gt;&lt;p style=&quot;margin:0 0 0 4px;line-height:1.6;&quot;&gt;- displayStory(T7Story): JPanel&lt;br/&gt;- createDetailedHeaderPanel(): JPanel&lt;br/&gt;- showCompletedStories(): void&lt;br/&gt;- formatSeconds(long): String&lt;br/&gt;- switchPanel(ActivePanel): void&lt;br/&gt;- showAllStories(): void&lt;br/&gt;- createHeaderPanel(): JPanel&lt;br/&gt;- showActiveStories(): void&lt;br/&gt;+ propertyChange(PropertyChangeEvent): void&lt;br/&gt;- drawPanel(): void&lt;br/&gt;- displayDetailedStory(T7Story): JPanel&lt;/p&gt;" style="verticalAlign=top;align=left;overflow=fill;fontSize=14;fontFamily=Helvetica;html=1;rounded=0;shadow=0;comic=0;labelBackgroundColor=none;strokeWidth=1;" vertex="1" parent="1">
          <mxGeometry x="1039" y="2383" width="328" height="316" as="geometry" />
        </mxCell>
        <mxCell id="Gq04PCi7IPzmHZxt_STZ-23" value="&lt;p style=&quot;margin:0px;margin-top:4px;text-align:center;&quot;&gt;&lt;b&gt;T7Story&lt;/b&gt;&lt;/p&gt;&lt;hr size=&quot;1&quot;/&gt;&lt;p style=&quot;margin:0 0 0 4px;line-height:1.6;&quot;&gt;+ T7Story(String): &lt;/p&gt;&lt;hr size=&quot;1&quot;/&gt;&lt;p style=&quot;margin:0 0 0 4px;line-height:1.6;&quot;&gt;- votes: HashMap&amp;lt;String, Double&amp;gt;&lt;br/&gt;- time: Duration&lt;br/&gt;- active: boolean&lt;br/&gt;- title: String&lt;/p&gt;&lt;hr size=&quot;1&quot;/&gt;&lt;p style=&quot;margin:0 0 0 4px;line-height:1.6;&quot;&gt; active: boolean&lt;br/&gt; title: String&lt;br/&gt; estimation: double&lt;br/&gt; time: Duration&lt;br/&gt; votes: HashMap&amp;lt;String, Double&amp;gt;&lt;/p&gt;" style="verticalAlign=top;align=left;overflow=fill;fontSize=14;fontFamily=Helvetica;html=1;rounded=0;shadow=0;comic=0;labelBackgroundColor=none;strokeWidth=1;" vertex="1" parent="1">
          <mxGeometry x="1137" y="186" width="253" height="271" as="geometry" />
        </mxCell>
        <mxCell id="Gq04PCi7IPzmHZxt_STZ-24" value="&lt;p style=&quot;margin:0px;margin-top:4px;text-align:center;&quot;&gt;&lt;b&gt;T7Subscriber&lt;/b&gt;&lt;/p&gt;&lt;hr size=&quot;1&quot;/&gt;&lt;p style=&quot;margin:0 0 0 4px;line-height:1.6;&quot;&gt;+ T7Subscriber(String, String, String): &lt;/p&gt;&lt;hr size=&quot;1&quot;/&gt;&lt;p style=&quot;margin:0 0 0 4px;line-height:1.6;&quot;&gt;+ connectionLost(Throwable): void&lt;br/&gt;+ messageArrived(String, MqttMessage): void&lt;br/&gt;+ deliveryComplete(IMqttDeliveryToken): void&lt;/p&gt;" style="verticalAlign=top;align=left;overflow=fill;fontSize=14;fontFamily=Helvetica;html=1;rounded=0;shadow=0;comic=0;labelBackgroundColor=none;strokeWidth=1;" vertex="1" parent="1">
          <mxGeometry x="43" y="2795" width="321" height="143" as="geometry" />
        </mxCell>
        <mxCell id="Gq04PCi7IPzmHZxt_STZ-157" style="edgeStyle=orthogonalEdgeStyle;rounded=0;orthogonalLoop=1;jettySize=auto;html=1;exitX=1;exitY=0.5;exitDx=0;exitDy=0;entryX=1;entryY=0.25;entryDx=0;entryDy=0;endArrow=open;endFill=0;" edge="1" parent="1" source="Gq04PCi7IPzmHZxt_STZ-25" target="Gq04PCi7IPzmHZxt_STZ-27">
          <mxGeometry relative="1" as="geometry" />
        </mxCell>
        <mxCell id="Gq04PCi7IPzmHZxt_STZ-25" value="&lt;p style=&quot;margin:0px;margin-top:4px;text-align:center;&quot;&gt;&lt;b&gt;T7TaigaImportController&lt;/b&gt;&lt;/p&gt;&lt;hr size=&quot;1&quot;/&gt;&lt;p style=&quot;margin:0 0 0 4px;line-height:1.6;&quot;&gt;+ T7TaigaImportController(T7Main): &lt;/p&gt;&lt;hr size=&quot;1&quot;/&gt;&lt;p style=&quot;margin:0 0 0 4px;line-height:1.6;&quot;&gt;+ importStories(String, String, String): void&lt;br/&gt;- parseJson(JSONArray): ArrayList&amp;lt;T7Story&amp;gt;&lt;br/&gt;- switchGUI(): void&lt;/p&gt;" style="verticalAlign=top;align=left;overflow=fill;fontSize=14;fontFamily=Helvetica;html=1;rounded=0;shadow=0;comic=0;labelBackgroundColor=none;strokeWidth=1;" vertex="1" parent="1">
          <mxGeometry x="285" y="4235" width="316" height="143" as="geometry" />
        </mxCell>
        <mxCell id="Gq04PCi7IPzmHZxt_STZ-26" value="&lt;p style=&quot;margin:0px;margin-top:4px;text-align:center;&quot;&gt;&lt;b&gt;T7TaigaImportPanel&lt;/b&gt;&lt;/p&gt;&lt;hr size=&quot;1&quot;/&gt;&lt;p style=&quot;margin:0 0 0 4px;line-height:1.6;&quot;&gt;+ T7TaigaImportPanel(T7TaigaImportController, T7Main): &lt;/p&gt;" style="verticalAlign=top;align=left;overflow=fill;fontSize=14;fontFamily=Helvetica;html=1;rounded=0;shadow=0;comic=0;labelBackgroundColor=none;strokeWidth=1;" vertex="1" parent="1">
          <mxGeometry x="650" y="4150" width="387" height="67" as="geometry" />
        </mxCell>
        <mxCell id="Gq04PCi7IPzmHZxt_STZ-27" value="&lt;p style=&quot;margin:0px;margin-top:4px;text-align:center;&quot;&gt;&lt;b&gt;T7TaigaStoryFetcher&lt;/b&gt;&lt;/p&gt;&lt;hr size=&quot;1&quot;/&gt;&lt;p style=&quot;margin:0 0 0 4px;line-height:1.6;&quot;&gt;+ T7TaigaStoryFetcher(): &lt;/p&gt;&lt;hr size=&quot;1&quot;/&gt;&lt;p style=&quot;margin:0 0 0 4px;line-height:1.6;&quot;&gt;+ loginAndGetToken(String, String): String&lt;br/&gt;+ getProjectId(String, String): int&lt;br/&gt;+ fetchUserStories(String, int): JSONArray&lt;br/&gt;+ getStories(String, String, String): JSONArray?&lt;/p&gt;" style="verticalAlign=top;align=left;overflow=fill;fontSize=14;fontFamily=Helvetica;html=1;rounded=0;shadow=0;comic=0;labelBackgroundColor=none;strokeWidth=1;" vertex="1" parent="1">
          <mxGeometry x="278.5" y="4460" width="329" height="155" as="geometry" />
        </mxCell>
        <mxCell id="Gq04PCi7IPzmHZxt_STZ-28" value="&lt;p style=&quot;margin:0px;margin-top:4px;text-align:center;&quot;&gt;&lt;b&gt;T7TitlePanel&lt;/b&gt;&lt;/p&gt;&lt;hr size=&quot;1&quot;/&gt;&lt;p style=&quot;margin:0 0 0 4px;line-height:1.6;&quot;&gt;+ T7TitlePanel(T7Main): &lt;/p&gt;&lt;hr size=&quot;1&quot;/&gt;&lt;p style=&quot;margin:0 0 0 4px;line-height:1.6;&quot;&gt;- refreshTitle(int): void&lt;br/&gt;+ propertyChange(PropertyChangeEvent): void&lt;/p&gt;" style="verticalAlign=top;align=left;overflow=fill;fontSize=14;fontFamily=Helvetica;html=1;rounded=0;shadow=0;comic=0;labelBackgroundColor=none;strokeWidth=1;" vertex="1" parent="1">
          <mxGeometry x="-121" y="2487" width="328" height="118" as="geometry" />
        </mxCell>
        <mxCell id="Gq04PCi7IPzmHZxt_STZ-29" value="&lt;p style=&quot;margin:0px;margin-top:4px;text-align:center;&quot;&gt;&lt;b&gt;T7TotalsPanel&lt;/b&gt;&lt;/p&gt;&lt;hr size=&quot;1&quot;/&gt;&lt;p style=&quot;margin:0 0 0 4px;line-height:1.6;&quot;&gt;# T7TotalsPanel(JFreeChart): &lt;/p&gt;&lt;hr size=&quot;1&quot;/&gt;&lt;p style=&quot;margin:0 0 0 4px;line-height:1.6;&quot;&gt;+ createPanel(): T7TotalsPanel&lt;/p&gt;" style="verticalAlign=top;align=left;overflow=fill;fontSize=14;fontFamily=Helvetica;html=1;rounded=0;shadow=0;comic=0;labelBackgroundColor=none;strokeWidth=1;" vertex="1" parent="1">
          <mxGeometry x="640" y="2487" width="223" height="93" as="geometry" />
        </mxCell>
        <mxCell id="Gq04PCi7IPzmHZxt_STZ-30" value="&lt;p style=&quot;margin:0px;margin-top:4px;text-align:center;&quot;&gt;&lt;b&gt;T7User&lt;/b&gt;&lt;/p&gt;&lt;hr size=&quot;1&quot;/&gt;&lt;p style=&quot;margin:0 0 0 4px;line-height:1.6;&quot;&gt;+ T7User(String): &lt;/p&gt;&lt;hr size=&quot;1&quot;/&gt;&lt;p style=&quot;margin:0 0 0 4px;line-height:1.6;&quot;&gt;- name: String&lt;/p&gt;&lt;hr size=&quot;1&quot;/&gt;&lt;p style=&quot;margin:0 0 0 4px;line-height:1.6;&quot;&gt; name: String&lt;/p&gt;" style="verticalAlign=top;align=left;overflow=fill;fontSize=14;fontFamily=Helvetica;html=1;rounded=0;shadow=0;comic=0;labelBackgroundColor=none;strokeWidth=1;" vertex="1" parent="1">
          <mxGeometry x="931" y="-14" width="144" height="119" as="geometry" />
        </mxCell>
        <mxCell id="Gq04PCi7IPzmHZxt_STZ-31" value="&lt;p style=&quot;margin:0px;margin-top:4px;text-align:center;&quot;&gt;&lt;b&gt;T7Vote&lt;/b&gt;&lt;/p&gt;&lt;hr size=&quot;1&quot;/&gt;&lt;p style=&quot;margin:0 0 0 4px;line-height:1.6;&quot;&gt;+ T7Vote(T7User, Double): &lt;/p&gt;&lt;hr size=&quot;1&quot;/&gt;&lt;p style=&quot;margin:0 0 0 4px;line-height:1.6;&quot;&gt;- user: T7User&lt;br/&gt;- score: Double&lt;/p&gt;&lt;hr size=&quot;1&quot;/&gt;&lt;p style=&quot;margin:0 0 0 4px;line-height:1.6;&quot;&gt; user: T7User&lt;br/&gt; score: Double&lt;/p&gt;" style="verticalAlign=top;align=left;overflow=fill;fontSize=14;fontFamily=Helvetica;html=1;rounded=0;shadow=0;comic=0;labelBackgroundColor=none;strokeWidth=1;" vertex="1" parent="1">
          <mxGeometry x="741" y="483" width="204" height="156" as="geometry" />
        </mxCell>
        <mxCell id="Gq04PCi7IPzmHZxt_STZ-32" value="&lt;p style=&quot;margin:0px;margin-top:4px;text-align:center;&quot;&gt;&lt;b&gt;T7VotingController&lt;/b&gt;&lt;/p&gt;&lt;hr size=&quot;1&quot;/&gt;&lt;p style=&quot;margin:0 0 0 4px;line-height:1.6;&quot;&gt;+ T7VotingController(): &lt;/p&gt;&lt;hr size=&quot;1&quot;/&gt;&lt;p style=&quot;margin:0 0 0 4px;line-height:1.6;&quot;&gt;+ stopVoting(): void&lt;br/&gt;+ vote(double): void&lt;br/&gt;+ startVoting(): void&lt;/p&gt;" style="verticalAlign=top;align=left;overflow=fill;fontSize=14;fontFamily=Helvetica;html=1;rounded=0;shadow=0;comic=0;labelBackgroundColor=none;strokeWidth=1;" vertex="1" parent="1">
          <mxGeometry x="364" y="735" width="199" height="143" as="geometry" />
        </mxCell>
        <mxCell id="Gq04PCi7IPzmHZxt_STZ-33" value="&lt;p style=&quot;margin:0px;margin-top:4px;text-align:center;&quot;&gt;&lt;b&gt;T7VotingControlsPanel&lt;/b&gt;&lt;/p&gt;&lt;hr size=&quot;1&quot;/&gt;&lt;p style=&quot;margin:0 0 0 4px;line-height:1.6;&quot;&gt;+ T7VotingControlsPanel(T7VotingController): &lt;/p&gt;&lt;hr size=&quot;1&quot;/&gt;&lt;p style=&quot;margin:0 0 0 4px;line-height:1.6;&quot;&gt;- votingNotStartedUI(): void&lt;br/&gt;+ propertyChange(PropertyChangeEvent): void&lt;br/&gt;- drawUI(): void&lt;br/&gt;- votingStartedUI(): void&lt;/p&gt;" style="verticalAlign=top;align=left;overflow=fill;fontSize=14;fontFamily=Helvetica;html=1;rounded=0;shadow=0;comic=0;labelBackgroundColor=none;strokeWidth=1;" vertex="1" parent="1">
          <mxGeometry x="759" y="2144" width="328" height="155" as="geometry" />
        </mxCell>
        <mxCell id="Gq04PCi7IPzmHZxt_STZ-155" style="edgeStyle=orthogonalEdgeStyle;rounded=0;orthogonalLoop=1;jettySize=auto;html=1;entryX=-0.014;entryY=0.194;entryDx=0;entryDy=0;startArrow=none;startFill=0;endArrow=open;endFill=0;entryPerimeter=0;" edge="1" parent="1" source="Gq04PCi7IPzmHZxt_STZ-34" target="Gq04PCi7IPzmHZxt_STZ-29">
          <mxGeometry relative="1" as="geometry" />
        </mxCell>
        <mxCell id="Gq04PCi7IPzmHZxt_STZ-34" value="&lt;p style=&quot;margin:0px;margin-top:4px;text-align:center;&quot;&gt;&lt;b&gt;T7VotingPanel&lt;/b&gt;&lt;/p&gt;&lt;hr size=&quot;1&quot;/&gt;&lt;p style=&quot;margin:0 0 0 4px;line-height:1.6;&quot;&gt;+ T7VotingPanel(T7VotingController): &lt;/p&gt;&lt;hr size=&quot;1&quot;/&gt;&lt;p style=&quot;margin:0 0 0 4px;line-height:1.6;&quot;&gt;+ propertyChange(PropertyChangeEvent): void&lt;br/&gt;- drawUI(): void&lt;/p&gt;" style="verticalAlign=top;align=left;overflow=fill;fontSize=14;fontFamily=Helvetica;html=1;rounded=0;shadow=0;comic=0;labelBackgroundColor=none;strokeWidth=1;" vertex="1" parent="1">
          <mxGeometry x="239" y="2487" width="328" height="118" as="geometry" />
        </mxCell>
        <mxCell id="Gq04PCi7IPzmHZxt_STZ-35" value="&lt;p style=&quot;margin:0px;margin-top:4px;text-align:center;&quot;&gt;&lt;i&gt;&amp;lt;&amp;lt;enumeration&amp;gt;&amp;gt;&lt;/i&gt;&lt;br/&gt;&lt;b&gt;Type&lt;/b&gt;&lt;/p&gt;&lt;hr size=&quot;1&quot;/&gt;&lt;p style=&quot;margin:0 0 0 4px;line-height:1.6;&quot;&gt;+ Type(): &lt;/p&gt;&lt;hr size=&quot;1&quot;/&gt;&lt;p style=&quot;margin:0 0 0 4px;line-height:1.6;&quot;&gt;+ valueOf(String): Type&lt;br/&gt;+ values(): Type[]&lt;/p&gt;" style="verticalAlign=top;align=left;overflow=fill;fontSize=14;fontFamily=Helvetica;html=1;rounded=0;shadow=0;comic=0;labelBackgroundColor=none;strokeWidth=1;" vertex="1" parent="1">
          <mxGeometry x="994" y="507" width="178" height="136" as="geometry" />
        </mxCell>
        <mxCell id="Gq04PCi7IPzmHZxt_STZ-36" value="" style="html=1;rounded=1;edgeStyle=orthogonalEdgeStyle;dashed=0;startArrow=circlePlus;startFill=0;endArrow=none;strokeColor=#820000;exitX=0.250;exitY=1.000;exitDx=0;exitDy=0;entryX=0.250;entryY=0.000;entryDx=0;entryDy=0;" edge="1" parent="1" source="Gq04PCi7IPzmHZxt_STZ-1" target="Gq04PCi7IPzmHZxt_STZ-22">
          <mxGeometry width="50" height="50" relative="1" as="geometry">
            <Array as="points">
              <mxPoint x="1188" y="2361" />
              <mxPoint x="1121" y="2361" />
            </Array>
          </mxGeometry>
        </mxCell>
        <mxCell id="Gq04PCi7IPzmHZxt_STZ-37" value="" style="html=1;rounded=1;edgeStyle=orthogonalEdgeStyle;dashed=0;startArrow=circlePlus;startFill=0;endArrow=none;strokeColor=#820000;exitX=0.750;exitY=1.001;exitDx=0;exitDy=0;entryX=0.750;entryY=0.000;entryDx=0;entryDy=0;" edge="1" parent="1" source="Gq04PCi7IPzmHZxt_STZ-2" target="Gq04PCi7IPzmHZxt_STZ-32">
          <mxGeometry width="50" height="50" relative="1" as="geometry">
            <Array as="points">
              <mxPoint x="499" y="701" />
              <mxPoint x="513" y="701" />
            </Array>
          </mxGeometry>
        </mxCell>
        <mxCell id="Gq04PCi7IPzmHZxt_STZ-38" value="" style="html=1;rounded=1;edgeStyle=orthogonalEdgeStyle;dashed=1;startArrow=none;endArrow=openThin;endSize=12;strokeColor=#595959;exitX=0.500;exitY=0.001;exitDx=0;exitDy=0;entryX=0.500;entryY=1.001;entryDx=0;entryDy=0;" edge="1" parent="1" source="Gq04PCi7IPzmHZxt_STZ-5" target="Gq04PCi7IPzmHZxt_STZ-4">
          <mxGeometry width="50" height="50" relative="1" as="geometry">
            <Array as="points">
              <mxPoint x="483" y="2141" />
              <mxPoint x="283" y="2141" />
            </Array>
          </mxGeometry>
        </mxCell>
        <mxCell id="Gq04PCi7IPzmHZxt_STZ-39" value="«create»" style="edgeLabel;resizable=0;html=1;align=left;verticalAlign=top;strokeColor=default;" vertex="1" connectable="0" parent="Gq04PCi7IPzmHZxt_STZ-38">
          <mxGeometry x="357" y="2121" as="geometry" />
        </mxCell>
        <mxCell id="Gq04PCi7IPzmHZxt_STZ-40" value="" style="html=1;rounded=1;edgeStyle=orthogonalEdgeStyle;dashed=1;startArrow=none;endArrow=openThin;endSize=12;strokeColor=#595959;exitX=0.250;exitY=1.000;exitDx=0;exitDy=0;entryX=0.250;entryY=0.000;entryDx=0;entryDy=0;" edge="1" parent="1" source="Gq04PCi7IPzmHZxt_STZ-6" target="Gq04PCi7IPzmHZxt_STZ-9">
          <mxGeometry width="50" height="50" relative="1" as="geometry">
            <Array as="points">
              <mxPoint x="986" y="3721" />
              <mxPoint x="1063" y="3721" />
              <mxPoint x="1063" y="4401" />
              <mxPoint x="1058" y="4401" />
            </Array>
          </mxGeometry>
        </mxCell>
        <mxCell id="Gq04PCi7IPzmHZxt_STZ-41" value="«create»" style="edgeLabel;resizable=0;html=1;align=left;verticalAlign=top;strokeColor=default;" vertex="1" connectable="0" parent="Gq04PCi7IPzmHZxt_STZ-40">
          <mxGeometry x="1011" y="4051" as="geometry" />
        </mxCell>
        <mxCell id="Gq04PCi7IPzmHZxt_STZ-42" value="" style="html=1;rounded=1;edgeStyle=orthogonalEdgeStyle;dashed=1;startArrow=none;endArrow=openThin;endSize=12;strokeColor=#595959;exitX=0.250;exitY=1.000;exitDx=0;exitDy=0;entryX=0.500;entryY=1.000;entryDx=0;entryDy=0;" edge="1" parent="1" source="Gq04PCi7IPzmHZxt_STZ-6" target="Gq04PCi7IPzmHZxt_STZ-10">
          <mxGeometry width="50" height="50" relative="1" as="geometry">
            <Array as="points">
              <mxPoint x="986" y="3701" />
              <mxPoint x="843" y="3701" />
              <mxPoint x="843" y="3401" />
              <mxPoint x="623" y="3401" />
            </Array>
          </mxGeometry>
        </mxCell>
        <mxCell id="Gq04PCi7IPzmHZxt_STZ-43" value="«create»" style="edgeLabel;resizable=0;html=1;align=left;verticalAlign=top;strokeColor=default;" vertex="1" connectable="0" parent="Gq04PCi7IPzmHZxt_STZ-42">
          <mxGeometry x="791" y="3541" as="geometry" />
        </mxCell>
        <mxCell id="Gq04PCi7IPzmHZxt_STZ-44" value="" style="html=1;rounded=1;edgeStyle=orthogonalEdgeStyle;dashed=1;startArrow=none;endArrow=openThin;endSize=12;strokeColor=#595959;exitX=0.250;exitY=1.000;exitDx=0;exitDy=0;entryX=0.500;entryY=0.000;entryDx=0;entryDy=0;" edge="1" parent="1" source="Gq04PCi7IPzmHZxt_STZ-6" target="Gq04PCi7IPzmHZxt_STZ-12">
          <mxGeometry width="50" height="50" relative="1" as="geometry">
            <Array as="points">
              <mxPoint x="986" y="3701" />
              <mxPoint x="843" y="3701" />
              <mxPoint x="843" y="3401" />
              <mxPoint x="1043" y="3401" />
              <mxPoint x="1043" y="3241" />
              <mxPoint x="1183" y="3241" />
            </Array>
          </mxGeometry>
        </mxCell>
        <mxCell id="Gq04PCi7IPzmHZxt_STZ-45" value="«create»" style="edgeLabel;resizable=0;html=1;align=left;verticalAlign=top;strokeColor=default;" vertex="1" connectable="0" parent="Gq04PCi7IPzmHZxt_STZ-44">
          <mxGeometry x="917" y="3381" as="geometry" />
        </mxCell>
        <mxCell id="Gq04PCi7IPzmHZxt_STZ-46" value="" style="html=1;rounded=1;edgeStyle=orthogonalEdgeStyle;dashed=1;startArrow=none;endArrow=openThin;endSize=12;strokeColor=#595959;exitX=0.250;exitY=1.000;exitDx=0;exitDy=0;entryX=0.500;entryY=1.000;entryDx=0;entryDy=0;" edge="1" parent="1" source="Gq04PCi7IPzmHZxt_STZ-6" target="Gq04PCi7IPzmHZxt_STZ-13">
          <mxGeometry width="50" height="50" relative="1" as="geometry">
            <Array as="points">
              <mxPoint x="986" y="3701" />
              <mxPoint x="843" y="3701" />
            </Array>
          </mxGeometry>
        </mxCell>
        <mxCell id="Gq04PCi7IPzmHZxt_STZ-47" value="«create»" style="edgeLabel;resizable=0;html=1;align=left;verticalAlign=top;strokeColor=default;" vertex="1" connectable="0" parent="Gq04PCi7IPzmHZxt_STZ-46">
          <mxGeometry x="791" y="3646" as="geometry" />
        </mxCell>
        <mxCell id="Gq04PCi7IPzmHZxt_STZ-48" value="" style="html=1;rounded=1;edgeStyle=orthogonalEdgeStyle;dashed=0;startArrow=diamondThinstartSize=12;endArrow=openThin;endSize=12;strokeColor=#595959;exitX=0.750;exitY=1.000;exitDx=0;exitDy=0;entryX=0.250;entryY=0.000;entryDx=0;entryDy=0;" edge="1" parent="1" source="Gq04PCi7IPzmHZxt_STZ-6" target="Gq04PCi7IPzmHZxt_STZ-16">
          <mxGeometry width="50" height="50" relative="1" as="geometry">
            <Array as="points">
              <mxPoint x="1100" y="3781" />
              <mxPoint x="1103" y="3781" />
              <mxPoint x="1103" y="3881" />
              <mxPoint x="1143" y="3881" />
              <mxPoint x="1143" y="3921" />
              <mxPoint x="1142" y="3921" />
            </Array>
          </mxGeometry>
        </mxCell>
        <mxCell id="Gq04PCi7IPzmHZxt_STZ-49" value="1" style="edgeLabel;resizable=0;html=1;align=left;verticalAlign=top;strokeColor=default;" vertex="1" connectable="0" parent="Gq04PCi7IPzmHZxt_STZ-48">
          <mxGeometry x="1089" y="3652" as="geometry" />
        </mxCell>
        <mxCell id="Gq04PCi7IPzmHZxt_STZ-50" value="1" style="edgeLabel;resizable=0;html=1;align=left;verticalAlign=top;strokeColor=default;" vertex="1" connectable="0" parent="Gq04PCi7IPzmHZxt_STZ-48">
          <mxGeometry x="1118" y="3861" as="geometry" />
        </mxCell>
        <mxCell id="Gq04PCi7IPzmHZxt_STZ-51" value="main" style="edgeLabel;resizable=0;html=1;align=left;verticalAlign=top;strokeColor=default;" vertex="1" connectable="0" parent="Gq04PCi7IPzmHZxt_STZ-48">
          <mxGeometry x="1100" y="3738" as="geometry" />
        </mxCell>
        <mxCell id="Gq04PCi7IPzmHZxt_STZ-52" value="" style="html=1;rounded=1;edgeStyle=orthogonalEdgeStyle;dashed=0;startArrow=diamondThinstartSize=12;endArrow=openThin;endSize=12;strokeColor=#595959;exitX=0.750;exitY=0.000;exitDx=0;exitDy=0;entryX=0.250;entryY=0.000;entryDx=0;entryDy=0;" edge="1" parent="1" source="Gq04PCi7IPzmHZxt_STZ-9" target="Gq04PCi7IPzmHZxt_STZ-16">
          <mxGeometry width="50" height="50" relative="1" as="geometry">
            <Array as="points">
              <mxPoint x="1188" y="4421" />
              <mxPoint x="1183" y="4421" />
              <mxPoint x="1183" y="4061" />
              <mxPoint x="1283" y="4061" />
              <mxPoint x="1283" y="3901" />
              <mxPoint x="1142" y="3901" />
            </Array>
          </mxGeometry>
        </mxCell>
        <mxCell id="Gq04PCi7IPzmHZxt_STZ-53" value="1" style="edgeLabel;resizable=0;html=1;align=left;verticalAlign=top;strokeColor=default;" vertex="1" connectable="0" parent="Gq04PCi7IPzmHZxt_STZ-52">
          <mxGeometry x="1177" y="4428" as="geometry" />
        </mxCell>
        <mxCell id="Gq04PCi7IPzmHZxt_STZ-54" value="1" style="edgeLabel;resizable=0;html=1;align=left;verticalAlign=top;strokeColor=default;" vertex="1" connectable="0" parent="Gq04PCi7IPzmHZxt_STZ-52">
          <mxGeometry x="1172" y="4141" as="geometry" />
        </mxCell>
        <mxCell id="Gq04PCi7IPzmHZxt_STZ-55" value="main" style="edgeLabel;resizable=0;html=1;align=left;verticalAlign=top;strokeColor=default;" vertex="1" connectable="0" parent="Gq04PCi7IPzmHZxt_STZ-52">
          <mxGeometry x="1183" y="4141" as="geometry" />
        </mxCell>
        <mxCell id="Gq04PCi7IPzmHZxt_STZ-56" value="" style="html=1;rounded=1;edgeStyle=orthogonalEdgeStyle;dashed=1;startArrow=none;endArrow=openThin;endSize=12;strokeColor=#595959;exitX=0.250;exitY=0.000;exitDx=0;exitDy=0;entryX=0.500;entryY=1.000;entryDx=0;entryDy=0;" edge="1" parent="1" source="Gq04PCi7IPzmHZxt_STZ-9" target="Gq04PCi7IPzmHZxt_STZ-18">
          <mxGeometry width="50" height="50" relative="1" as="geometry">
            <Array as="points">
              <mxPoint x="1058" y="4421" />
              <mxPoint x="263" y="4421" />
              <mxPoint x="263" y="4381" />
              <mxPoint x="23" y="4381" />
            </Array>
          </mxGeometry>
        </mxCell>
        <mxCell id="Gq04PCi7IPzmHZxt_STZ-57" value="«create»" style="edgeLabel;resizable=0;html=1;align=left;verticalAlign=top;strokeColor=default;" vertex="1" connectable="0" parent="Gq04PCi7IPzmHZxt_STZ-56">
          <mxGeometry x="117" y="4361" as="geometry" />
        </mxCell>
        <mxCell id="Gq04PCi7IPzmHZxt_STZ-58" value="" style="html=1;rounded=1;edgeStyle=orthogonalEdgeStyle;dashed=1;startArrow=none;endArrow=openThin;endSize=12;strokeColor=#595959;exitX=0.250;exitY=0.000;exitDx=0;exitDy=0;entryX=0.500;entryY=1.000;entryDx=0;entryDy=0;" edge="1" parent="1" source="Gq04PCi7IPzmHZxt_STZ-9" target="Gq04PCi7IPzmHZxt_STZ-24">
          <mxGeometry width="50" height="50" relative="1" as="geometry">
            <Array as="points">
              <mxPoint x="1058" y="4421" />
              <mxPoint x="263" y="4421" />
              <mxPoint x="263" y="4381" />
              <mxPoint x="223" y="4381" />
              <mxPoint x="223" y="2961" />
              <mxPoint x="203" y="2961" />
            </Array>
          </mxGeometry>
        </mxCell>
        <mxCell id="Gq04PCi7IPzmHZxt_STZ-59" value="«create»" style="edgeLabel;resizable=0;html=1;align=left;verticalAlign=top;strokeColor=default;" vertex="1" connectable="0" parent="Gq04PCi7IPzmHZxt_STZ-58">
          <mxGeometry x="171" y="4016" as="geometry" />
        </mxCell>
        <mxCell id="Gq04PCi7IPzmHZxt_STZ-60" value="" style="html=1;rounded=1;edgeStyle=orthogonalEdgeStyle;dashed=1;startArrow=none;endArrow=openThin;endSize=12;strokeColor=#595959;exitX=0.250;exitY=0.000;exitDx=0;exitDy=0;entryX=0.250;entryY=0.000;entryDx=0;entryDy=0;" edge="1" parent="1" source="Gq04PCi7IPzmHZxt_STZ-9" target="Gq04PCi7IPzmHZxt_STZ-25">
          <mxGeometry width="50" height="50" relative="1" as="geometry">
            <Array as="points">
              <mxPoint x="1058" y="4421" />
              <mxPoint x="263" y="4421" />
              <mxPoint x="263" y="4181" />
              <mxPoint x="364" y="4181" />
            </Array>
          </mxGeometry>
        </mxCell>
        <mxCell id="Gq04PCi7IPzmHZxt_STZ-61" value="«create»" style="edgeLabel;resizable=0;html=1;align=left;verticalAlign=top;strokeColor=default;" vertex="1" connectable="0" parent="Gq04PCi7IPzmHZxt_STZ-60">
          <mxGeometry x="211" y="4291" as="geometry" />
        </mxCell>
        <mxCell id="Gq04PCi7IPzmHZxt_STZ-62" value="" style="html=1;rounded=1;edgeStyle=orthogonalEdgeStyle;dashed=1;startArrow=none;endArrow=openThin;endSize=12;strokeColor=#595959;exitX=0.250;exitY=0.000;exitDx=0;exitDy=0;entryX=0.500;entryY=1.001;entryDx=0;entryDy=0;" edge="1" parent="1" source="Gq04PCi7IPzmHZxt_STZ-9" target="Gq04PCi7IPzmHZxt_STZ-26">
          <mxGeometry width="50" height="50" relative="1" as="geometry">
            <Array as="points">
              <mxPoint x="1058" y="4421" />
              <mxPoint x="263" y="4421" />
              <mxPoint x="263" y="4381" />
              <mxPoint x="843" y="4381" />
            </Array>
          </mxGeometry>
        </mxCell>
        <mxCell id="Gq04PCi7IPzmHZxt_STZ-63" value="«create»" style="edgeLabel;resizable=0;html=1;align=left;verticalAlign=top;strokeColor=default;" vertex="1" connectable="0" parent="Gq04PCi7IPzmHZxt_STZ-62">
          <mxGeometry x="502" y="4401" as="geometry" />
        </mxCell>
        <mxCell id="Gq04PCi7IPzmHZxt_STZ-64" value="" style="html=1;rounded=1;edgeStyle=orthogonalEdgeStyle;dashed=0;startArrow=diamondThinstartSize=12;endArrow=openThin;endSize=12;strokeColor=#595959;exitX=0.500;exitY=1.000;exitDx=0;exitDy=0;entryX=0.250;entryY=0.000;entryDx=0;entryDy=0;" edge="1" parent="1" source="Gq04PCi7IPzmHZxt_STZ-12" target="Gq04PCi7IPzmHZxt_STZ-16">
          <mxGeometry width="50" height="50" relative="1" as="geometry">
            <Array as="points">
              <mxPoint x="1183" y="3721" />
              <mxPoint x="1143" y="3721" />
              <mxPoint x="1143" y="3921" />
              <mxPoint x="1142" y="3921" />
            </Array>
          </mxGeometry>
        </mxCell>
        <mxCell id="Gq04PCi7IPzmHZxt_STZ-65" value="1" style="edgeLabel;resizable=0;html=1;align=left;verticalAlign=top;strokeColor=default;" vertex="1" connectable="0" parent="Gq04PCi7IPzmHZxt_STZ-64">
          <mxGeometry x="1172" y="3412" as="geometry" />
        </mxCell>
        <mxCell id="Gq04PCi7IPzmHZxt_STZ-66" value="1" style="edgeLabel;resizable=0;html=1;align=left;verticalAlign=top;strokeColor=default;" vertex="1" connectable="0" parent="Gq04PCi7IPzmHZxt_STZ-64">
          <mxGeometry x="1132" y="3844" as="geometry" />
        </mxCell>
        <mxCell id="Gq04PCi7IPzmHZxt_STZ-67" value="main" style="edgeLabel;resizable=0;html=1;align=left;verticalAlign=top;strokeColor=default;" vertex="1" connectable="0" parent="Gq04PCi7IPzmHZxt_STZ-64">
          <mxGeometry x="1143" y="3844" as="geometry" />
        </mxCell>
        <mxCell id="Gq04PCi7IPzmHZxt_STZ-68" value="" style="html=1;rounded=1;edgeStyle=orthogonalEdgeStyle;dashed=1;startArrow=none;endArrow=openThin;endSize=12;strokeColor=#595959;exitX=0.500;exitY=0.000;exitDx=0;exitDy=0;entryX=0.500;entryY=1.001;entryDx=0;entryDy=0;" edge="1" parent="1" source="Gq04PCi7IPzmHZxt_STZ-12" target="Gq04PCi7IPzmHZxt_STZ-18">
          <mxGeometry width="50" height="50" relative="1" as="geometry">
            <Array as="points">
              <mxPoint x="1183" y="3161" />
              <mxPoint x="463" y="3161" />
              <mxPoint x="463" y="3141" />
              <mxPoint x="23" y="3141" />
            </Array>
          </mxGeometry>
        </mxCell>
        <mxCell id="Gq04PCi7IPzmHZxt_STZ-69" value="«create»" style="edgeLabel;resizable=0;html=1;align=left;verticalAlign=top;strokeColor=default;" vertex="1" connectable="0" parent="Gq04PCi7IPzmHZxt_STZ-68">
          <mxGeometry x="290" y="3121" as="geometry" />
        </mxCell>
        <mxCell id="Gq04PCi7IPzmHZxt_STZ-70" value="" style="html=1;rounded=1;edgeStyle=orthogonalEdgeStyle;dashed=1;startArrow=none;endArrow=openThin;endSize=12;strokeColor=#595959;exitX=0.500;exitY=0.000;exitDx=0;exitDy=0;entryX=0.500;entryY=0.000;entryDx=0;entryDy=0;" edge="1" parent="1" source="Gq04PCi7IPzmHZxt_STZ-12" target="Gq04PCi7IPzmHZxt_STZ-21">
          <mxGeometry width="50" height="50" relative="1" as="geometry">
            <Array as="points">
              <mxPoint x="1183" y="3161" />
              <mxPoint x="463" y="3161" />
              <mxPoint x="463" y="3101" />
              <mxPoint x="503" y="3101" />
              <mxPoint x="503" y="2941" />
              <mxPoint x="383" y="2941" />
            </Array>
          </mxGeometry>
        </mxCell>
        <mxCell id="Gq04PCi7IPzmHZxt_STZ-71" value="«create»" style="edgeLabel;resizable=0;html=1;align=left;verticalAlign=top;strokeColor=default;" vertex="1" connectable="0" parent="Gq04PCi7IPzmHZxt_STZ-70">
          <mxGeometry x="477" y="3081" as="geometry" />
        </mxCell>
        <mxCell id="Gq04PCi7IPzmHZxt_STZ-72" value="" style="html=1;rounded=1;edgeStyle=orthogonalEdgeStyle;dashed=1;startArrow=none;endArrow=openThin;endSize=12;strokeColor=#595959;exitX=0.500;exitY=0.000;exitDx=0;exitDy=0;entryX=0.500;entryY=1.000;entryDx=0;entryDy=0;" edge="1" parent="1" source="Gq04PCi7IPzmHZxt_STZ-12" target="Gq04PCi7IPzmHZxt_STZ-24">
          <mxGeometry width="50" height="50" relative="1" as="geometry">
            <Array as="points">
              <mxPoint x="1183" y="3161" />
              <mxPoint x="463" y="3161" />
              <mxPoint x="463" y="3061" />
              <mxPoint x="223" y="3061" />
              <mxPoint x="223" y="2961" />
              <mxPoint x="203" y="2961" />
            </Array>
          </mxGeometry>
        </mxCell>
        <mxCell id="Gq04PCi7IPzmHZxt_STZ-73" value="«create»" style="edgeLabel;resizable=0;html=1;align=left;verticalAlign=top;strokeColor=default;" vertex="1" connectable="0" parent="Gq04PCi7IPzmHZxt_STZ-72">
          <mxGeometry x="317" y="3041" as="geometry" />
        </mxCell>
        <mxCell id="Gq04PCi7IPzmHZxt_STZ-74" value="" style="html=1;rounded=1;edgeStyle=orthogonalEdgeStyle;dashed=1;startArrow=none;endArrow=openThin;endSize=12;strokeColor=#595959;exitX=0.500;exitY=0.000;exitDx=0;exitDy=0;entryX=0.250;entryY=1.000;entryDx=0;entryDy=0;" edge="1" parent="1" source="Gq04PCi7IPzmHZxt_STZ-14" target="Gq04PCi7IPzmHZxt_STZ-6">
          <mxGeometry width="50" height="50" relative="1" as="geometry">
            <Array as="points">
              <mxPoint x="1283" y="3721" />
              <mxPoint x="1383" y="3721" />
              <mxPoint x="1383" y="3681" />
              <mxPoint x="986" y="3681" />
            </Array>
          </mxGeometry>
        </mxCell>
        <mxCell id="Gq04PCi7IPzmHZxt_STZ-75" value="«create»" style="edgeLabel;resizable=0;html=1;align=left;verticalAlign=top;strokeColor=default;" vertex="1" connectable="0" parent="Gq04PCi7IPzmHZxt_STZ-74">
          <mxGeometry x="1307" y="3661" as="geometry" />
        </mxCell>
        <mxCell id="Gq04PCi7IPzmHZxt_STZ-76" value="" style="html=1;rounded=1;edgeStyle=orthogonalEdgeStyle;dashed=1;startArrow=none;endArrow=openThin;endSize=12;strokeColor=#595959;exitX=0.500;exitY=0.000;exitDx=0;exitDy=0;entryX=0.500;entryY=1.001;entryDx=0;entryDy=0;" edge="1" parent="1" source="Gq04PCi7IPzmHZxt_STZ-14" target="Gq04PCi7IPzmHZxt_STZ-7">
          <mxGeometry width="50" height="50" relative="1" as="geometry">
            <Array as="points">
              <mxPoint x="1283" y="3721" />
              <mxPoint x="1383" y="3721" />
              <mxPoint x="1383" y="3681" />
              <mxPoint x="1603" y="3681" />
            </Array>
          </mxGeometry>
        </mxCell>
        <mxCell id="Gq04PCi7IPzmHZxt_STZ-77" value="«create»" style="edgeLabel;resizable=0;html=1;align=left;verticalAlign=top;strokeColor=default;" vertex="1" connectable="0" parent="Gq04PCi7IPzmHZxt_STZ-76">
          <mxGeometry x="1357" y="3701" as="geometry" />
        </mxCell>
        <mxCell id="Gq04PCi7IPzmHZxt_STZ-78" value="" style="html=1;rounded=1;edgeStyle=orthogonalEdgeStyle;dashed=0;startArrow=diamondThinstartSize=12;endArrow=openThin;endSize=12;strokeColor=#595959;exitX=0.500;exitY=1.000;exitDx=0;exitDy=0;entryX=0.250;entryY=0.000;entryDx=0;entryDy=0;" edge="1" parent="1" source="Gq04PCi7IPzmHZxt_STZ-14" target="Gq04PCi7IPzmHZxt_STZ-16">
          <mxGeometry width="50" height="50" relative="1" as="geometry">
            <Array as="points">
              <mxPoint x="1283" y="3881" />
              <mxPoint x="1143" y="3881" />
              <mxPoint x="1143" y="3921" />
              <mxPoint x="1142" y="3921" />
            </Array>
          </mxGeometry>
        </mxCell>
        <mxCell id="Gq04PCi7IPzmHZxt_STZ-79" value="1" style="edgeLabel;resizable=0;html=1;align=left;verticalAlign=top;strokeColor=default;" vertex="1" connectable="0" parent="Gq04PCi7IPzmHZxt_STZ-78">
          <mxGeometry x="1184" y="3861" as="geometry" />
        </mxCell>
        <mxCell id="Gq04PCi7IPzmHZxt_STZ-80" value="1" style="edgeLabel;resizable=0;html=1;align=left;verticalAlign=top;strokeColor=default;" vertex="1" connectable="0" parent="Gq04PCi7IPzmHZxt_STZ-78">
          <mxGeometry x="1254" y="3861" as="geometry" />
        </mxCell>
        <mxCell id="Gq04PCi7IPzmHZxt_STZ-81" value="main" style="edgeLabel;resizable=0;html=1;align=left;verticalAlign=top;strokeColor=default;" vertex="1" connectable="0" parent="Gq04PCi7IPzmHZxt_STZ-78">
          <mxGeometry x="1283" y="3858" as="geometry" />
        </mxCell>
        <mxCell id="Gq04PCi7IPzmHZxt_STZ-82" value="" style="html=1;rounded=1;edgeStyle=orthogonalEdgeStyle;dashed=1;startArrow=none;endArrow=openThin;endSize=12;strokeColor=#595959;exitX=0.500;exitY=0.000;exitDx=0;exitDy=0;entryX=0.750;entryY=1.000;entryDx=0;entryDy=0;" edge="1" parent="1" source="Gq04PCi7IPzmHZxt_STZ-14" target="Gq04PCi7IPzmHZxt_STZ-30">
          <mxGeometry width="50" height="50" relative="1" as="geometry">
            <Array as="points">
              <mxPoint x="1283" y="3721" />
              <mxPoint x="1383" y="3721" />
              <mxPoint x="1383" y="3681" />
              <mxPoint x="1423" y="3681" />
              <mxPoint x="1423" y="161" />
              <mxPoint x="1039" y="161" />
            </Array>
          </mxGeometry>
        </mxCell>
        <mxCell id="Gq04PCi7IPzmHZxt_STZ-83" value="«create»" style="edgeLabel;resizable=0;html=1;align=left;verticalAlign=top;strokeColor=default;" vertex="1" connectable="0" parent="Gq04PCi7IPzmHZxt_STZ-82">
          <mxGeometry x="1357" y="3621" as="geometry" />
        </mxCell>
        <mxCell id="Gq04PCi7IPzmHZxt_STZ-84" value="" style="html=1;rounded=1;edgeStyle=orthogonalEdgeStyle;dashed=1;startArrow=none;endArrow=openThin;endSize=12;strokeColor=#595959;exitX=0.750;exitY=0.000;exitDx=0;exitDy=0;entryX=0.500;entryY=0.000;entryDx=0;entryDy=0;" edge="1" parent="1" source="Gq04PCi7IPzmHZxt_STZ-16" target="Gq04PCi7IPzmHZxt_STZ-14">
          <mxGeometry width="50" height="50" relative="1" as="geometry">
            <Array as="points">
              <mxPoint x="1224" y="3921" />
              <mxPoint x="1423" y="3921" />
              <mxPoint x="1423" y="3701" />
              <mxPoint x="1283" y="3701" />
            </Array>
          </mxGeometry>
        </mxCell>
        <mxCell id="Gq04PCi7IPzmHZxt_STZ-85" value="«create»" style="edgeLabel;resizable=0;html=1;align=left;verticalAlign=top;strokeColor=default;" vertex="1" connectable="0" parent="Gq04PCi7IPzmHZxt_STZ-84">
          <mxGeometry x="1371" y="3874" as="geometry" />
        </mxCell>
        <mxCell id="Gq04PCi7IPzmHZxt_STZ-86" value="" style="html=1;rounded=1;edgeStyle=orthogonalEdgeStyle;dashed=1;startArrow=none;endArrow=openThin;endSize=12;strokeColor=#595959;exitX=0.750;exitY=0.000;exitDx=0;exitDy=0;entryX=0.500;entryY=1.001;entryDx=0;entryDy=0;" edge="1" parent="1" source="Gq04PCi7IPzmHZxt_STZ-16" target="Gq04PCi7IPzmHZxt_STZ-15">
          <mxGeometry width="50" height="50" relative="1" as="geometry">
            <Array as="points">
              <mxPoint x="1224" y="3921" />
              <mxPoint x="1423" y="3921" />
              <mxPoint x="1423" y="3901" />
              <mxPoint x="1603" y="3901" />
            </Array>
          </mxGeometry>
        </mxCell>
        <mxCell id="Gq04PCi7IPzmHZxt_STZ-87" value="«create»" style="edgeLabel;resizable=0;html=1;align=left;verticalAlign=top;strokeColor=default;" vertex="1" connectable="0" parent="Gq04PCi7IPzmHZxt_STZ-86">
          <mxGeometry x="1371" y="3901" as="geometry" />
        </mxCell>
        <mxCell id="Gq04PCi7IPzmHZxt_STZ-88" value="" style="html=1;rounded=1;edgeStyle=orthogonalEdgeStyle;dashed=1;startArrow=none;endArrow=openThin;endSize=12;strokeColor=#595959;exitX=0.167;exitY=0.000;exitDx=0;exitDy=0;entryX=0.250;entryY=1.000;entryDx=0;entryDy=0;" edge="1" parent="1" source="Gq04PCi7IPzmHZxt_STZ-19" target="Gq04PCi7IPzmHZxt_STZ-17">
          <mxGeometry width="50" height="50" relative="1" as="geometry">
            <Array as="points">
              <mxPoint x="660" y="861" />
              <mxPoint x="663" y="861" />
              <mxPoint x="663" y="681" />
              <mxPoint x="579" y="681" />
            </Array>
          </mxGeometry>
        </mxCell>
        <mxCell id="Gq04PCi7IPzmHZxt_STZ-89" value="«create»" style="edgeLabel;resizable=0;html=1;align=left;verticalAlign=top;strokeColor=default;" vertex="1" connectable="0" parent="Gq04PCi7IPzmHZxt_STZ-88">
          <mxGeometry x="611" y="731" as="geometry" />
        </mxCell>
        <mxCell id="Gq04PCi7IPzmHZxt_STZ-90" value="" style="html=1;rounded=1;edgeStyle=orthogonalEdgeStyle;dashed=0;startArrow=diamondThinstartSize=12;endArrow=openThin;endSize=12;strokeColor=#595959;exitX=0.500;exitY=0.000;exitDx=0;exitDy=0;entryX=0.750;entryY=1.000;entryDx=0;entryDy=0;" edge="1" parent="1" source="Gq04PCi7IPzmHZxt_STZ-19" target="Gq04PCi7IPzmHZxt_STZ-17">
          <mxGeometry width="50" height="50" relative="1" as="geometry">
            <Array as="points">
              <mxPoint x="783" y="661" />
              <mxPoint x="707" y="661" />
            </Array>
          </mxGeometry>
        </mxCell>
        <mxCell id="Gq04PCi7IPzmHZxt_STZ-91" value="1" style="edgeLabel;resizable=0;html=1;align=left;verticalAlign=top;strokeColor=default;" vertex="1" connectable="0" parent="Gq04PCi7IPzmHZxt_STZ-90">
          <mxGeometry x="727" y="641" as="geometry" />
        </mxCell>
        <mxCell id="Gq04PCi7IPzmHZxt_STZ-92" value="*" style="edgeLabel;resizable=0;html=1;align=left;verticalAlign=top;strokeColor=default;" vertex="1" connectable="0" parent="Gq04PCi7IPzmHZxt_STZ-90">
          <mxGeometry x="698" y="436" as="geometry" />
        </mxCell>
        <mxCell id="Gq04PCi7IPzmHZxt_STZ-93" value="publishQueue" style="edgeLabel;resizable=0;html=1;align=left;verticalAlign=top;strokeColor=default;" vertex="1" connectable="0" parent="Gq04PCi7IPzmHZxt_STZ-90">
          <mxGeometry x="707" y="427" as="geometry" />
        </mxCell>
        <mxCell id="Gq04PCi7IPzmHZxt_STZ-94" value="" style="html=1;rounded=1;edgeStyle=orthogonalEdgeStyle;dashed=0;startArrow=diamondThinstartSize=12;endArrow=openThin;endSize=12;strokeColor=#595959;exitX=0.500;exitY=0.000;exitDx=0;exitDy=0;entryX=0.250;entryY=1.000;entryDx=0;entryDy=0;" edge="1" parent="1" source="Gq04PCi7IPzmHZxt_STZ-19" target="Gq04PCi7IPzmHZxt_STZ-23">
          <mxGeometry width="50" height="50" relative="1" as="geometry">
            <Array as="points">
              <mxPoint x="783" y="661" />
              <mxPoint x="1200" y="661" />
            </Array>
          </mxGeometry>
        </mxCell>
        <mxCell id="Gq04PCi7IPzmHZxt_STZ-95" value="1" style="edgeLabel;resizable=0;html=1;align=left;verticalAlign=top;strokeColor=default;" vertex="1" connectable="0" parent="Gq04PCi7IPzmHZxt_STZ-94">
          <mxGeometry x="772" y="698" as="geometry" />
        </mxCell>
        <mxCell id="Gq04PCi7IPzmHZxt_STZ-96" value="*" style="edgeLabel;resizable=0;html=1;align=left;verticalAlign=top;strokeColor=default;" vertex="1" connectable="0" parent="Gq04PCi7IPzmHZxt_STZ-94">
          <mxGeometry x="1191" y="487" as="geometry" />
        </mxCell>
        <mxCell id="Gq04PCi7IPzmHZxt_STZ-97" value="stories" style="edgeLabel;resizable=0;html=1;align=left;verticalAlign=top;strokeColor=default;" vertex="1" connectable="0" parent="Gq04PCi7IPzmHZxt_STZ-94">
          <mxGeometry x="1200" y="467" as="geometry" />
        </mxCell>
        <mxCell id="Gq04PCi7IPzmHZxt_STZ-98" value="" style="html=1;rounded=1;edgeStyle=orthogonalEdgeStyle;dashed=0;startArrow=diamondThinstartSize=12;endArrow=openThin;endSize=12;strokeColor=#595959;exitX=0.500;exitY=0.000;exitDx=0;exitDy=0;entryX=0.250;entryY=1.000;entryDx=0;entryDy=0;" edge="1" parent="1" source="Gq04PCi7IPzmHZxt_STZ-19" target="Gq04PCi7IPzmHZxt_STZ-30">
          <mxGeometry width="50" height="50" relative="1" as="geometry">
            <Array as="points">
              <mxPoint x="783" y="661" />
              <mxPoint x="963" y="661" />
              <mxPoint x="963" y="121" />
              <mxPoint x="967" y="121" />
            </Array>
          </mxGeometry>
        </mxCell>
        <mxCell id="Gq04PCi7IPzmHZxt_STZ-99" value="1" style="edgeLabel;resizable=0;html=1;align=left;verticalAlign=top;strokeColor=default;" vertex="1" connectable="0" parent="Gq04PCi7IPzmHZxt_STZ-98">
          <mxGeometry x="772" y="808" as="geometry" />
        </mxCell>
        <mxCell id="Gq04PCi7IPzmHZxt_STZ-100" value="*" style="edgeLabel;resizable=0;html=1;align=left;verticalAlign=top;strokeColor=default;" vertex="1" connectable="0" parent="Gq04PCi7IPzmHZxt_STZ-98">
          <mxGeometry x="958" y="111" as="geometry" />
        </mxCell>
        <mxCell id="Gq04PCi7IPzmHZxt_STZ-101" value="users" style="edgeLabel;resizable=0;html=1;align=left;verticalAlign=top;strokeColor=default;" vertex="1" connectable="0" parent="Gq04PCi7IPzmHZxt_STZ-98">
          <mxGeometry x="963" y="201" as="geometry" />
        </mxCell>
        <mxCell id="Gq04PCi7IPzmHZxt_STZ-102" value="" style="html=1;rounded=1;edgeStyle=orthogonalEdgeStyle;dashed=1;startArrow=none;endArrow=openThin;endSize=12;strokeColor=#595959;exitX=0.167;exitY=0.000;exitDx=0;exitDy=0;entryX=0.500;entryY=1.000;entryDx=0;entryDy=0;" edge="1" parent="1" source="Gq04PCi7IPzmHZxt_STZ-19" target="Gq04PCi7IPzmHZxt_STZ-31">
          <mxGeometry width="50" height="50" relative="1" as="geometry">
            <Array as="points">
              <mxPoint x="660" y="861" />
              <mxPoint x="663" y="861" />
              <mxPoint x="663" y="681" />
              <mxPoint x="843" y="681" />
            </Array>
          </mxGeometry>
        </mxCell>
        <mxCell id="Gq04PCi7IPzmHZxt_STZ-103" value="«create»" style="edgeLabel;resizable=0;html=1;align=left;verticalAlign=top;strokeColor=default;" vertex="1" connectable="0" parent="Gq04PCi7IPzmHZxt_STZ-102">
          <mxGeometry x="611" y="761" as="geometry" />
        </mxCell>
        <mxCell id="Gq04PCi7IPzmHZxt_STZ-104" value="" style="html=1;rounded=1;edgeStyle=orthogonalEdgeStyle;dashed=0;startArrow=diamondThinstartSize=12;endArrow=openThin;endSize=12;strokeColor=#595959;exitX=0.500;exitY=0.000;exitDx=0;exitDy=0;entryX=0.250;entryY=1.000;entryDx=0;entryDy=0;" edge="1" parent="1" source="Gq04PCi7IPzmHZxt_STZ-19" target="Gq04PCi7IPzmHZxt_STZ-35">
          <mxGeometry width="50" height="50" relative="1" as="geometry">
            <Array as="points">
              <mxPoint x="783" y="661" />
              <mxPoint x="1039" y="661" />
            </Array>
          </mxGeometry>
        </mxCell>
        <mxCell id="Gq04PCi7IPzmHZxt_STZ-105" value="1" style="edgeLabel;resizable=0;html=1;align=left;verticalAlign=top;strokeColor=default;" vertex="1" connectable="0" parent="Gq04PCi7IPzmHZxt_STZ-104">
          <mxGeometry x="1007" y="641" as="geometry" />
        </mxCell>
        <mxCell id="Gq04PCi7IPzmHZxt_STZ-106" value="1" style="edgeLabel;resizable=0;html=1;align=left;verticalAlign=top;strokeColor=default;" vertex="1" connectable="0" parent="Gq04PCi7IPzmHZxt_STZ-104">
          <mxGeometry x="1028" y="621" as="geometry" />
        </mxCell>
        <mxCell id="Gq04PCi7IPzmHZxt_STZ-107" value="type" style="edgeLabel;resizable=0;html=1;align=left;verticalAlign=top;strokeColor=default;" vertex="1" connectable="0" parent="Gq04PCi7IPzmHZxt_STZ-104">
          <mxGeometry x="1039" y="621" as="geometry" />
        </mxCell>
        <mxCell id="Gq04PCi7IPzmHZxt_STZ-108" value="" style="html=1;rounded=1;edgeStyle=orthogonalEdgeStyle;dashed=1;startArrow=none;endArrow=openThin;endSize=12;strokeColor=#595959;exitX=0.500;exitY=0.000;exitDx=0;exitDy=0;entryX=0.500;entryY=1.000;entryDx=0;entryDy=0;" edge="1" parent="1" source="Gq04PCi7IPzmHZxt_STZ-21" target="Gq04PCi7IPzmHZxt_STZ-22">
          <mxGeometry width="50" height="50" relative="1" as="geometry">
            <Array as="points">
              <mxPoint x="383" y="2721" />
              <mxPoint x="1203" y="2721" />
            </Array>
          </mxGeometry>
        </mxCell>
        <mxCell id="Gq04PCi7IPzmHZxt_STZ-109" value="«create»" style="edgeLabel;resizable=0;html=1;align=left;verticalAlign=top;strokeColor=default;" vertex="1" connectable="0" parent="Gq04PCi7IPzmHZxt_STZ-108">
          <mxGeometry x="767" y="2701" as="geometry" />
        </mxCell>
        <mxCell id="Gq04PCi7IPzmHZxt_STZ-110" value="" style="html=1;rounded=1;edgeStyle=orthogonalEdgeStyle;dashed=1;startArrow=none;endArrow=openThin;endSize=12;strokeColor=#595959;exitX=0.500;exitY=0.000;exitDx=0;exitDy=0;entryX=0.500;entryY=1.000;entryDx=0;entryDy=0;" edge="1" parent="1" source="Gq04PCi7IPzmHZxt_STZ-21" target="Gq04PCi7IPzmHZxt_STZ-28">
          <mxGeometry width="50" height="50" relative="1" as="geometry">
            <Array as="points">
              <mxPoint x="383" y="2721" />
              <mxPoint x="43" y="2721" />
            </Array>
          </mxGeometry>
        </mxCell>
        <mxCell id="Gq04PCi7IPzmHZxt_STZ-111" value="«create»" style="edgeLabel;resizable=0;html=1;align=left;verticalAlign=top;strokeColor=default;" vertex="1" connectable="0" parent="Gq04PCi7IPzmHZxt_STZ-110">
          <mxGeometry x="130" y="2701" as="geometry" />
        </mxCell>
        <mxCell id="Gq04PCi7IPzmHZxt_STZ-112" value="" style="html=1;rounded=1;edgeStyle=orthogonalEdgeStyle;dashed=1;startArrow=none;endArrow=openThin;endSize=12;strokeColor=#595959;exitX=0.500;exitY=0.000;exitDx=0;exitDy=0;entryX=0.250;entryY=0.000;entryDx=0;entryDy=0;" edge="1" parent="1" source="Gq04PCi7IPzmHZxt_STZ-21" target="Gq04PCi7IPzmHZxt_STZ-32">
          <mxGeometry width="50" height="50" relative="1" as="geometry">
            <Array as="points">
              <mxPoint x="383" y="2721" />
              <mxPoint x="223" y="2721" />
              <mxPoint x="223" y="2201" />
              <mxPoint x="103" y="2201" />
              <mxPoint x="103" y="701" />
              <mxPoint x="413" y="701" />
            </Array>
          </mxGeometry>
        </mxCell>
        <mxCell id="Gq04PCi7IPzmHZxt_STZ-113" value="«create»" style="edgeLabel;resizable=0;html=1;align=left;verticalAlign=top;strokeColor=default;" vertex="1" connectable="0" parent="Gq04PCi7IPzmHZxt_STZ-112">
          <mxGeometry x="171" y="2191" as="geometry" />
        </mxCell>
        <mxCell id="Gq04PCi7IPzmHZxt_STZ-114" value="" style="html=1;rounded=1;edgeStyle=orthogonalEdgeStyle;dashed=1;startArrow=none;endArrow=openThin;endSize=12;strokeColor=#595959;exitX=0.500;exitY=0.000;exitDx=0;exitDy=0;entryX=0.750;entryY=0.000;entryDx=0;entryDy=0;" edge="1" parent="1" source="Gq04PCi7IPzmHZxt_STZ-21" target="Gq04PCi7IPzmHZxt_STZ-34">
          <mxGeometry width="50" height="50" relative="1" as="geometry">
            <Array as="points">
              <mxPoint x="383" y="2721" />
              <mxPoint x="583" y="2721" />
              <mxPoint x="583" y="2461" />
              <mxPoint x="485" y="2461" />
            </Array>
          </mxGeometry>
        </mxCell>
        <mxCell id="Gq04PCi7IPzmHZxt_STZ-115" value="«create»" style="edgeLabel;resizable=0;html=1;align=left;verticalAlign=top;strokeColor=default;" vertex="1" connectable="0" parent="Gq04PCi7IPzmHZxt_STZ-114">
          <mxGeometry x="531" y="2624" as="geometry" />
        </mxCell>
        <mxCell id="Gq04PCi7IPzmHZxt_STZ-116" value="" style="html=1;rounded=1;edgeStyle=orthogonalEdgeStyle;dashed=0;startArrow=diamondThinstartSize=12;endArrow=openThin;endSize=12;strokeColor=#595959;exitX=0.750;exitY=0.000;exitDx=0;exitDy=0;entryX=0.750;entryY=1.000;entryDx=0;entryDy=0;" edge="1" parent="1" source="Gq04PCi7IPzmHZxt_STZ-22" target="Gq04PCi7IPzmHZxt_STZ-1">
          <mxGeometry width="50" height="50" relative="1" as="geometry">
            <Array as="points">
              <mxPoint x="1285" y="2361" />
              <mxPoint x="1298" y="2361" />
            </Array>
          </mxGeometry>
        </mxCell>
        <mxCell id="Gq04PCi7IPzmHZxt_STZ-117" value="1" style="edgeLabel;resizable=0;html=1;align=left;verticalAlign=top;strokeColor=default;" vertex="1" connectable="0" parent="Gq04PCi7IPzmHZxt_STZ-116">
          <mxGeometry x="1274" y="2362" as="geometry" />
        </mxCell>
        <mxCell id="Gq04PCi7IPzmHZxt_STZ-118" value="1" style="edgeLabel;resizable=0;html=1;align=left;verticalAlign=top;strokeColor=default;" vertex="1" connectable="0" parent="Gq04PCi7IPzmHZxt_STZ-116">
          <mxGeometry x="1287" y="2121" as="geometry" />
        </mxCell>
        <mxCell id="Gq04PCi7IPzmHZxt_STZ-119" value="activePanel" style="edgeLabel;resizable=0;html=1;align=left;verticalAlign=top;strokeColor=default;" vertex="1" connectable="0" parent="Gq04PCi7IPzmHZxt_STZ-116">
          <mxGeometry x="1298" y="2121" as="geometry" />
        </mxCell>
        <mxCell id="Gq04PCi7IPzmHZxt_STZ-120" value="" style="html=1;rounded=1;edgeStyle=orthogonalEdgeStyle;dashed=0;startArrow=diamondThinstartSize=12;endArrow=openThin;endSize=12;strokeColor=#595959;exitX=0.750;exitY=0.000;exitDx=0;exitDy=0;entryX=0.250;entryY=0.000;entryDx=0;entryDy=0;" edge="1" parent="1" source="Gq04PCi7IPzmHZxt_STZ-25" target="Gq04PCi7IPzmHZxt_STZ-16">
          <mxGeometry width="50" height="50" relative="1" as="geometry">
            <Array as="points">
              <mxPoint x="522" y="4121" />
              <mxPoint x="1183" y="4121" />
              <mxPoint x="1183" y="4061" />
              <mxPoint x="1283" y="4061" />
              <mxPoint x="1283" y="3901" />
              <mxPoint x="1142" y="3901" />
            </Array>
          </mxGeometry>
        </mxCell>
        <mxCell id="Gq04PCi7IPzmHZxt_STZ-121" value="1" style="edgeLabel;resizable=0;html=1;align=left;verticalAlign=top;strokeColor=default;" vertex="1" connectable="0" parent="Gq04PCi7IPzmHZxt_STZ-120">
          <mxGeometry x="511" y="4197" as="geometry" />
        </mxCell>
        <mxCell id="Gq04PCi7IPzmHZxt_STZ-122" value="1" style="edgeLabel;resizable=0;html=1;align=left;verticalAlign=top;strokeColor=default;" vertex="1" connectable="0" parent="Gq04PCi7IPzmHZxt_STZ-120">
          <mxGeometry x="1012" y="4101" as="geometry" />
        </mxCell>
        <mxCell id="Gq04PCi7IPzmHZxt_STZ-123" value="main" style="edgeLabel;resizable=0;html=1;align=left;verticalAlign=top;strokeColor=default;" vertex="1" connectable="0" parent="Gq04PCi7IPzmHZxt_STZ-120">
          <mxGeometry x="1183" y="4081" as="geometry" />
        </mxCell>
        <mxCell id="Gq04PCi7IPzmHZxt_STZ-124" value="" style="html=1;rounded=1;edgeStyle=orthogonalEdgeStyle;dashed=1;startArrow=none;endArrow=openThin;endSize=12;strokeColor=#595959;exitX=0.250;exitY=0.000;exitDx=0;exitDy=0;entryX=0.500;entryY=0.000;entryDx=0;entryDy=0;" edge="1" parent="1" source="Gq04PCi7IPzmHZxt_STZ-25" target="Gq04PCi7IPzmHZxt_STZ-21">
          <mxGeometry width="50" height="50" relative="1" as="geometry">
            <Array as="points">
              <mxPoint x="364" y="4201" />
              <mxPoint x="363" y="4201" />
              <mxPoint x="363" y="3081" />
              <mxPoint x="503" y="3081" />
              <mxPoint x="503" y="2941" />
              <mxPoint x="383" y="2941" />
            </Array>
          </mxGeometry>
        </mxCell>
        <mxCell id="Gq04PCi7IPzmHZxt_STZ-125" value="«create»" style="edgeLabel;resizable=0;html=1;align=left;verticalAlign=top;strokeColor=default;" vertex="1" connectable="0" parent="Gq04PCi7IPzmHZxt_STZ-124">
          <mxGeometry x="311" y="3351" as="geometry" />
        </mxCell>
        <mxCell id="Gq04PCi7IPzmHZxt_STZ-126" value="" style="html=1;rounded=1;edgeStyle=orthogonalEdgeStyle;dashed=1;startArrow=none;endArrow=openThin;endSize=12;strokeColor=#595959;exitX=0.250;exitY=0.000;exitDx=0;exitDy=0;entryX=0.750;entryY=1.000;entryDx=0;entryDy=0;" edge="1" parent="1" source="Gq04PCi7IPzmHZxt_STZ-25" target="Gq04PCi7IPzmHZxt_STZ-23">
          <mxGeometry width="50" height="50" relative="1" as="geometry">
            <Array as="points">
              <mxPoint x="364" y="4201" />
              <mxPoint x="363" y="4201" />
              <mxPoint x="363" y="4161" />
              <mxPoint x="403" y="4161" />
              <mxPoint x="403" y="3121" />
              <mxPoint x="1383" y="3121" />
              <mxPoint x="1383" y="1321" />
              <mxPoint x="1326" y="1321" />
            </Array>
          </mxGeometry>
        </mxCell>
        <mxCell id="Gq04PCi7IPzmHZxt_STZ-127" value="«create»" style="edgeLabel;resizable=0;html=1;align=left;verticalAlign=top;strokeColor=default;" vertex="1" connectable="0" parent="Gq04PCi7IPzmHZxt_STZ-126">
          <mxGeometry x="351" y="3631" as="geometry" />
        </mxCell>
        <mxCell id="Gq04PCi7IPzmHZxt_STZ-128" value="" style="html=1;rounded=1;edgeStyle=orthogonalEdgeStyle;dashed=0;startArrow=diamondThinstartSize=12;endArrow=openThin;endSize=12;strokeColor=#595959;exitX=0.500;exitY=0.000;exitDx=0;exitDy=0;entryX=0.250;entryY=1.000;entryDx=0;entryDy=0;" edge="1" parent="1" source="Gq04PCi7IPzmHZxt_STZ-31" target="Gq04PCi7IPzmHZxt_STZ-30">
          <mxGeometry width="50" height="50" relative="1" as="geometry">
            <Array as="points">
              <mxPoint x="843" y="461" />
              <mxPoint x="963" y="461" />
              <mxPoint x="963" y="121" />
              <mxPoint x="967" y="121" />
            </Array>
          </mxGeometry>
        </mxCell>
        <mxCell id="Gq04PCi7IPzmHZxt_STZ-129" value="1" style="edgeLabel;resizable=0;html=1;align=left;verticalAlign=top;strokeColor=default;" vertex="1" connectable="0" parent="Gq04PCi7IPzmHZxt_STZ-128">
          <mxGeometry x="898" y="441" as="geometry" />
        </mxCell>
        <mxCell id="Gq04PCi7IPzmHZxt_STZ-130" value="1" style="edgeLabel;resizable=0;html=1;align=left;verticalAlign=top;strokeColor=default;" vertex="1" connectable="0" parent="Gq04PCi7IPzmHZxt_STZ-128">
          <mxGeometry x="952" y="224" as="geometry" />
        </mxCell>
        <mxCell id="Gq04PCi7IPzmHZxt_STZ-131" value="user" style="edgeLabel;resizable=0;html=1;align=left;verticalAlign=top;strokeColor=default;" vertex="1" connectable="0" parent="Gq04PCi7IPzmHZxt_STZ-128">
          <mxGeometry x="963" y="168" as="geometry" />
        </mxCell>
        <mxCell id="Gq04PCi7IPzmHZxt_STZ-132" value="" style="html=1;rounded=1;edgeStyle=orthogonalEdgeStyle;dashed=1;startArrow=none;endArrow=openThin;endSize=12;strokeColor=#595959;exitX=0.250;exitY=0.000;exitDx=0;exitDy=0;entryX=0.250;entryY=1.000;entryDx=0;entryDy=0;" edge="1" parent="1" source="Gq04PCi7IPzmHZxt_STZ-32" target="Gq04PCi7IPzmHZxt_STZ-2">
          <mxGeometry width="50" height="50" relative="1" as="geometry">
            <Array as="points">
              <mxPoint x="413" y="681" />
              <mxPoint x="427" y="681" />
            </Array>
          </mxGeometry>
        </mxCell>
        <mxCell id="Gq04PCi7IPzmHZxt_STZ-133" value="«create»" style="edgeLabel;resizable=0;html=1;align=left;verticalAlign=top;strokeColor=default;" vertex="1" connectable="0" parent="Gq04PCi7IPzmHZxt_STZ-132">
          <mxGeometry x="375" y="633" as="geometry" />
        </mxCell>
        <mxCell id="Gq04PCi7IPzmHZxt_STZ-134" value="" style="html=1;rounded=1;edgeStyle=orthogonalEdgeStyle;dashed=1;startArrow=none;endArrow=openThin;endSize=12;strokeColor=#595959;exitX=0.750;exitY=0.000;exitDx=0;exitDy=0;entryX=0.500;entryY=1.000;entryDx=0;entryDy=0;" edge="1" parent="1" source="Gq04PCi7IPzmHZxt_STZ-33" target="Gq04PCi7IPzmHZxt_STZ-8">
          <mxGeometry width="50" height="50" relative="1" as="geometry">
            <Array as="points">
              <mxPoint x="1005" y="2101" />
              <mxPoint x="1023" y="2101" />
              <mxPoint x="1023" y="1981" />
              <mxPoint x="1203" y="1981" />
            </Array>
          </mxGeometry>
        </mxCell>
        <mxCell id="Gq04PCi7IPzmHZxt_STZ-135" value="«create»" style="edgeLabel;resizable=0;html=1;align=left;verticalAlign=top;strokeColor=default;" vertex="1" connectable="0" parent="Gq04PCi7IPzmHZxt_STZ-134">
          <mxGeometry x="971" y="2031" as="geometry" />
        </mxCell>
        <mxCell id="Gq04PCi7IPzmHZxt_STZ-136" value="" style="html=1;rounded=1;edgeStyle=orthogonalEdgeStyle;dashed=1;startArrow=none;endArrow=openThin;endSize=12;strokeColor=#595959;exitX=0.750;exitY=0.000;exitDx=0;exitDy=0;entryX=0.500;entryY=1.001;entryDx=0;entryDy=0;" edge="1" parent="1" source="Gq04PCi7IPzmHZxt_STZ-33" target="Gq04PCi7IPzmHZxt_STZ-11">
          <mxGeometry width="50" height="50" relative="1" as="geometry">
            <Array as="points">
              <mxPoint x="1005" y="2101" />
              <mxPoint x="1023" y="2101" />
            </Array>
          </mxGeometry>
        </mxCell>
        <mxCell id="Gq04PCi7IPzmHZxt_STZ-137" value="«create»" style="edgeLabel;resizable=0;html=1;align=left;verticalAlign=top;strokeColor=default;" vertex="1" connectable="0" parent="Gq04PCi7IPzmHZxt_STZ-136">
          <mxGeometry x="971" y="1837" as="geometry" />
        </mxCell>
        <mxCell id="Gq04PCi7IPzmHZxt_STZ-138" value="" style="html=1;rounded=1;edgeStyle=orthogonalEdgeStyle;dashed=0;startArrow=diamondThinstartSize=12;endArrow=openThin;endSize=12;strokeColor=#595959;exitX=0.250;exitY=0.000;exitDx=0;exitDy=0;entryX=0.500;entryY=0.000;entryDx=0;entryDy=0;" edge="1" parent="1" source="Gq04PCi7IPzmHZxt_STZ-33" target="Gq04PCi7IPzmHZxt_STZ-19">
          <mxGeometry width="50" height="50" relative="1" as="geometry">
            <Array as="points">
              <mxPoint x="841" y="2101" />
              <mxPoint x="583" y="2101" />
              <mxPoint x="583" y="841" />
              <mxPoint x="783" y="841" />
            </Array>
          </mxGeometry>
        </mxCell>
        <mxCell id="Gq04PCi7IPzmHZxt_STZ-139" value="1" style="edgeLabel;resizable=0;html=1;align=left;verticalAlign=top;strokeColor=default;" vertex="1" connectable="0" parent="Gq04PCi7IPzmHZxt_STZ-138">
          <mxGeometry x="793" y="2081" as="geometry" />
        </mxCell>
        <mxCell id="Gq04PCi7IPzmHZxt_STZ-140" value="1" style="edgeLabel;resizable=0;html=1;align=left;verticalAlign=top;strokeColor=default;" vertex="1" connectable="0" parent="Gq04PCi7IPzmHZxt_STZ-138">
          <mxGeometry x="711" y="821" as="geometry" />
        </mxCell>
        <mxCell id="Gq04PCi7IPzmHZxt_STZ-141" value="repository" style="edgeLabel;resizable=0;html=1;align=left;verticalAlign=top;strokeColor=default;" vertex="1" connectable="0" parent="Gq04PCi7IPzmHZxt_STZ-138">
          <mxGeometry x="783" y="859" as="geometry" />
        </mxCell>
        <mxCell id="Gq04PCi7IPzmHZxt_STZ-142" value="" style="html=1;rounded=1;edgeStyle=orthogonalEdgeStyle;dashed=0;startArrow=diamondThinstartSize=12;endArrow=openThin;endSize=12;strokeColor=#595959;exitX=0.250;exitY=0.000;exitDx=0;exitDy=0;entryX=0.500;entryY=1.000;entryDx=0;entryDy=0;" edge="1" parent="1" source="Gq04PCi7IPzmHZxt_STZ-33" target="Gq04PCi7IPzmHZxt_STZ-32">
          <mxGeometry width="50" height="50" relative="1" as="geometry">
            <Array as="points">
              <mxPoint x="841" y="2101" />
              <mxPoint x="583" y="2101" />
              <mxPoint x="583" y="2081" />
              <mxPoint x="463" y="2081" />
            </Array>
          </mxGeometry>
        </mxCell>
        <mxCell id="Gq04PCi7IPzmHZxt_STZ-143" value="1" style="edgeLabel;resizable=0;html=1;align=left;verticalAlign=top;strokeColor=default;" vertex="1" connectable="0" parent="Gq04PCi7IPzmHZxt_STZ-142">
          <mxGeometry x="750" y="2081" as="geometry" />
        </mxCell>
        <mxCell id="Gq04PCi7IPzmHZxt_STZ-144" value="1" style="edgeLabel;resizable=0;html=1;align=left;verticalAlign=top;strokeColor=default;" vertex="1" connectable="0" parent="Gq04PCi7IPzmHZxt_STZ-142">
          <mxGeometry x="452" y="872" as="geometry" />
        </mxCell>
        <mxCell id="Gq04PCi7IPzmHZxt_STZ-145" value="votingController" style="edgeLabel;resizable=0;html=1;align=left;verticalAlign=top;strokeColor=default;" vertex="1" connectable="0" parent="Gq04PCi7IPzmHZxt_STZ-142">
          <mxGeometry x="463" y="1059" as="geometry" />
        </mxCell>
        <mxCell id="Gq04PCi7IPzmHZxt_STZ-146" value="" style="html=1;rounded=1;edgeStyle=orthogonalEdgeStyle;dashed=1;startArrow=none;endArrow=openThin;endSize=12;strokeColor=#595959;exitX=0.750;exitY=0.000;exitDx=0;exitDy=0;entryX=0.500;entryY=0.000;entryDx=0;entryDy=0;" edge="1" parent="1" source="Gq04PCi7IPzmHZxt_STZ-34" target="Gq04PCi7IPzmHZxt_STZ-5">
          <mxGeometry width="50" height="50" relative="1" as="geometry">
            <Array as="points">
              <mxPoint x="485" y="2441" />
              <mxPoint x="703" y="2441" />
              <mxPoint x="703" y="2161" />
              <mxPoint x="483" y="2161" />
            </Array>
          </mxGeometry>
        </mxCell>
        <mxCell id="Gq04PCi7IPzmHZxt_STZ-147" value="«create»" style="edgeLabel;resizable=0;html=1;align=left;verticalAlign=top;strokeColor=default;" vertex="1" connectable="0" parent="Gq04PCi7IPzmHZxt_STZ-146">
          <mxGeometry x="651" y="2291" as="geometry" />
        </mxCell>
        <mxCell id="Gq04PCi7IPzmHZxt_STZ-148" value="" style="html=1;rounded=1;edgeStyle=orthogonalEdgeStyle;dashed=0;startArrow=diamondThinstartSize=12;endArrow=openThin;endSize=12;strokeColor=#595959;exitX=0.250;exitY=0.000;exitDx=0;exitDy=0;entryX=0.500;entryY=1.000;entryDx=0;entryDy=0;" edge="1" parent="1" source="Gq04PCi7IPzmHZxt_STZ-34" target="Gq04PCi7IPzmHZxt_STZ-32">
          <mxGeometry width="50" height="50" relative="1" as="geometry">
            <Array as="points">
              <mxPoint x="321" y="2461" />
              <mxPoint x="263" y="2461" />
              <mxPoint x="263" y="2161" />
              <mxPoint x="463" y="2161" />
            </Array>
          </mxGeometry>
        </mxCell>
        <mxCell id="Gq04PCi7IPzmHZxt_STZ-149" value="1" style="edgeLabel;resizable=0;html=1;align=left;verticalAlign=top;strokeColor=default;" vertex="1" connectable="0" parent="Gq04PCi7IPzmHZxt_STZ-148">
          <mxGeometry x="301" y="2441" as="geometry" />
        </mxCell>
        <mxCell id="Gq04PCi7IPzmHZxt_STZ-150" value="1" style="edgeLabel;resizable=0;html=1;align=left;verticalAlign=top;strokeColor=default;" vertex="1" connectable="0" parent="Gq04PCi7IPzmHZxt_STZ-148">
          <mxGeometry x="452" y="1073" as="geometry" />
        </mxCell>
        <mxCell id="Gq04PCi7IPzmHZxt_STZ-151" value="votingController" style="edgeLabel;resizable=0;html=1;align=left;verticalAlign=top;strokeColor=default;" vertex="1" connectable="0" parent="Gq04PCi7IPzmHZxt_STZ-148">
          <mxGeometry x="463" y="872" as="geometry" />
        </mxCell>
        <mxCell id="Gq04PCi7IPzmHZxt_STZ-152" value="" style="html=1;rounded=1;edgeStyle=orthogonalEdgeStyle;dashed=1;startArrow=none;endArrow=openThin;endSize=12;strokeColor=#595959;exitX=0.750;exitY=0.000;exitDx=0;exitDy=0;entryX=0.750;entryY=0.000;entryDx=0;entryDy=0;" edge="1" parent="1" source="Gq04PCi7IPzmHZxt_STZ-34" target="Gq04PCi7IPzmHZxt_STZ-33">
          <mxGeometry width="50" height="50" relative="1" as="geometry">
            <Array as="points">
              <mxPoint x="485" y="2441" />
              <mxPoint x="703" y="2441" />
              <mxPoint x="703" y="2421" />
              <mxPoint x="743" y="2421" />
              <mxPoint x="743" y="2121" />
              <mxPoint x="1005" y="2121" />
            </Array>
          </mxGeometry>
        </mxCell>
        <mxCell id="Gq04PCi7IPzmHZxt_STZ-153" value="«create»" style="edgeLabel;resizable=0;html=1;align=left;verticalAlign=top;strokeColor=default;" vertex="1" connectable="0" parent="Gq04PCi7IPzmHZxt_STZ-152">
          <mxGeometry x="691" y="2336" as="geometry" />
        </mxCell>
        <mxCell id="Gq04PCi7IPzmHZxt_STZ-154" value="" style="html=1;rounded=1;edgeStyle=orthogonalEdgeStyle;dashed=0;startArrow=circlePlus;startFill=0;endArrow=none;strokeColor=#820000;exitX=0.750;exitY=1.000;exitDx=0;exitDy=0;entryX=0.833;entryY=0.000;entryDx=0;entryDy=0;" edge="1" parent="1" source="Gq04PCi7IPzmHZxt_STZ-35" target="Gq04PCi7IPzmHZxt_STZ-19">
          <mxGeometry width="50" height="50" relative="1" as="geometry">
            <Array as="points">
              <mxPoint x="1128" y="741" />
              <mxPoint x="906" y="741" />
            </Array>
          </mxGeometry>
        </mxCell>
        <mxCell id="Gq04PCi7IPzmHZxt_STZ-156" style="edgeStyle=orthogonalEdgeStyle;rounded=0;orthogonalLoop=1;jettySize=auto;html=1;exitX=1;exitY=0.5;exitDx=0;exitDy=0;entryX=0;entryY=0.344;entryDx=0;entryDy=0;entryPerimeter=0;endArrow=open;endFill=0;" edge="1" parent="1" source="Gq04PCi7IPzmHZxt_STZ-34" target="Gq04PCi7IPzmHZxt_STZ-20">
          <mxGeometry relative="1" as="geometry" />
        </mxCell>
        <mxCell id="Gq04PCi7IPzmHZxt_STZ-158" style="edgeStyle=orthogonalEdgeStyle;rounded=0;orthogonalLoop=1;jettySize=auto;html=1;exitX=0;exitY=0.25;exitDx=0;exitDy=0;entryX=1.002;entryY=0.433;entryDx=0;entryDy=0;entryPerimeter=0;endArrow=open;endFill=0;" edge="1" parent="1" source="Gq04PCi7IPzmHZxt_STZ-24" target="Gq04PCi7IPzmHZxt_STZ-3">
          <mxGeometry relative="1" as="geometry" />
        </mxCell>
      </root>
    </mxGraphModel>
  </diagram>
</mxfile>
